M48
INCH
T01C0.0150
T02C0.0400
%
T01
X-018400Y+019600
X-024950Y+019550
T02
X-028500Y+018700
X-027500Y+018700
X-026500Y+018700
X-025500Y+018700
X-024500Y+018700
X-023500Y+018700
X-022500Y+018700
X-021500Y+018700
X-020500Y+018700
X-027500Y+020500
X-026500Y+020500
X-025500Y+020500
X-024500Y+020500
X-023500Y+020500
X-022500Y+020500
X-021500Y+020500
X-020500Y+020500
X-019500Y+020500
X-018500Y+020500
X-027500Y+021500
X-026500Y+021500
X-025500Y+021500
X-024500Y+021500
X-023500Y+021500
X-022500Y+021500
X-021500Y+021500
X-020500Y+021500
X-019500Y+021500
X-018500Y+021500
X-017500Y+020500
X-016500Y+020500
X-015500Y+020500
X-014500Y+020500
X-013500Y+020500
X-012500Y+020500
X-011500Y+020500
X-010500Y+020500
X-009500Y+020500
X-008500Y+020500
X-017500Y+021500
X-016500Y+021500
X-015500Y+021500
X-014500Y+021500
X-013500Y+021500
X-012500Y+021500
X-011500Y+021500
X-010500Y+021500
X-009500Y+021500
X-008500Y+021500
X-013150Y+018300
X-012150Y+018300
X-011150Y+018300
X-010150Y+018300
X-009150Y+018300
X-013550Y+006700
X-012550Y+006700
X-011550Y+006700
X-010550Y+006700
X-009550Y+006700
X-008550Y+006700
X-007550Y+006700
X-025350Y+004700
X-024350Y+004700
X-023350Y+004700
X-022350Y+004700
X-021350Y+004700
X-020350Y+004700
X-016528Y+014005
X-016528Y+011250
X-018300Y+014005
X-018300Y+011250
M30
