G04 PROTEUS RS274X GERBER FILE*
%FSLAX45Y45*%
%MOMM*%
G01*
%ADD13R,1.016000X2.540000*%
%ADD14R,1.016000X1.270000*%
%ADD15R,2.540000X3.556000*%
%ADD16R,2.032000X2.032000*%
%ADD17R,0.990000X0.405000*%
%ADD18R,0.405000X0.990000*%
%ADD19C,8.483600*%
%ADD70R,0.635000X2.032000*%
%ADD71C,0.203200*%
D13*
X+184000Y-3273800D03*
X-133500Y-3273800D03*
D14*
X+905000Y+1585000D03*
X+691640Y+1585000D03*
X+907900Y+1825000D03*
X+694540Y+1825000D03*
D15*
X-1035200Y+1044200D03*
X+628500Y+1044200D03*
D16*
X-679600Y-1813300D03*
X-679600Y-1406900D03*
X+742800Y-1813300D03*
X+742800Y-1406900D03*
D17*
X-819500Y+2071300D03*
X-819500Y+2151300D03*
X-819500Y+2231300D03*
X-819500Y+2311300D03*
X-819500Y+2391300D03*
X-819500Y+2471300D03*
X-1039500Y+2071300D03*
X-1039500Y+2151300D03*
X-1039500Y+2231300D03*
X-1039500Y+2311300D03*
X-1039500Y+2391300D03*
X-1039500Y+2471300D03*
D18*
X-929500Y+2481300D03*
D19*
X-194300Y+1061900D03*
D70*
X+503000Y+3020000D03*
X+376000Y+3020000D03*
X+249000Y+3020000D03*
X+122000Y+3020000D03*
X-5000Y+3020000D03*
X-132000Y+3020000D03*
X-259000Y+3020000D03*
X-386000Y+3020000D03*
X-386000Y+2105600D03*
X-259000Y+2105600D03*
X-132000Y+2105600D03*
X-5000Y+2105600D03*
X+122000Y+2105600D03*
X+249000Y+2105600D03*
X+376000Y+2105600D03*
X+503000Y+2105600D03*
D18*
X-930000Y+2050000D03*
D14*
X-805000Y+1860000D03*
X-1018360Y+1860000D03*
D71*
X-610000Y-3352045D02*
X-608010Y-3372492D01*
X-602285Y-3391400D01*
X-581094Y-3423139D01*
X-549356Y-3444330D01*
X-530447Y-3450055D01*
X-510000Y-3452045D01*
X-610000Y-3352045D02*
X-610000Y-2682045D01*
X-611990Y-2661598D01*
X-617715Y-2642690D01*
X-638906Y-2610951D01*
X-670644Y-2589760D01*
X-689553Y-2584035D01*
X-710000Y-2582045D01*
X-1190000Y-2582045D01*
X-1290000Y-2482045D02*
X-1288010Y-2502492D01*
X-1282285Y-2521400D01*
X-1261094Y-2553139D01*
X-1229356Y-2574330D01*
X-1210447Y-2580055D01*
X-1190000Y-2582045D01*
X-1290000Y-2482045D02*
X-1290000Y+2617964D01*
X-1288010Y+2638411D01*
X-1282285Y+2657319D01*
X-1261094Y+2689058D01*
X-1229356Y+2710249D01*
X-1210447Y+2715974D01*
X-1190000Y+2717964D01*
X-750000Y+2717964D01*
X-650000Y+2817964D02*
X-651990Y+2797517D01*
X-657715Y+2778609D01*
X-678906Y+2746870D01*
X-710644Y+2725679D01*
X-729553Y+2719954D01*
X-750000Y+2717964D01*
X-650000Y+2817964D02*
X-650000Y+3218300D01*
X-648010Y+3238747D01*
X-642285Y+3257655D01*
X-621094Y+3289394D01*
X-589356Y+3310585D01*
X-570447Y+3316310D01*
X-550000Y+3318300D01*
X+630000Y+3318300D01*
X+730000Y+3218300D02*
X+728010Y+3238747D01*
X+722285Y+3257655D01*
X+701094Y+3289394D01*
X+669356Y+3310585D01*
X+650447Y+3316310D01*
X+630000Y+3318300D01*
X+730000Y+3218300D02*
X+730000Y+2817964D01*
X+731990Y+2797517D01*
X+737715Y+2778609D01*
X+758906Y+2746870D01*
X+790644Y+2725679D01*
X+809553Y+2719954D01*
X+830000Y+2717964D01*
X+1440000Y+2717964D01*
X+1540000Y+2617964D02*
X+1538010Y+2638411D01*
X+1532285Y+2657319D01*
X+1511094Y+2689058D01*
X+1479356Y+2710249D01*
X+1460447Y+2715974D01*
X+1440000Y+2717964D01*
X+1540000Y+2617964D02*
X+1540000Y-2482045D01*
X+1538010Y-2502492D01*
X+1532285Y-2521400D01*
X+1511094Y-2553139D01*
X+1479356Y-2574330D01*
X+1460447Y-2580055D01*
X+1440000Y-2582045D01*
X+790000Y-2582045D01*
X+690000Y-2682045D02*
X+691990Y-2661598D01*
X+697715Y-2642690D01*
X+718906Y-2610951D01*
X+750644Y-2589760D01*
X+769553Y-2584035D01*
X+790000Y-2582045D01*
X+690000Y-2682045D02*
X+690000Y-3352045D01*
X+688010Y-3372492D01*
X+682285Y-3391400D01*
X+661094Y-3423139D01*
X+629356Y-3444330D01*
X+610447Y-3450055D01*
X+590000Y-3452045D01*
X+302500Y-3452045D01*
X-222500Y-3452045D02*
X-510000Y-3452045D01*
X+302500Y-3452045D02*
X-222500Y-3452045D01*
M02*
