G04 PROTEUS RS274X GERBER FILE*
%FSLAX45Y45*%
%MOMM*%
G01*
%ADD10C,0.381000*%
%ADD11C,0.304800*%
%ADD12C,0.762000*%
%ADD13C,0.254000*%
%ADD14R,1.016000X2.540000*%
%ADD15R,2.032000X2.032000*%
%ADD23C,0.203200*%
G36*
X+1399759Y-1163711D02*
X+1468145Y-1163711D01*
X+1485390Y-1146466D01*
X+1485390Y-2479397D01*
X+1484180Y-2491834D01*
X+1482368Y-2497817D01*
X+1471719Y-2513766D01*
X+1455773Y-2524413D01*
X+1449791Y-2526224D01*
X+1437341Y-2527436D01*
X+787341Y-2527436D01*
X+782569Y-2527900D01*
X+758897Y-2530204D01*
X+727060Y-2539844D01*
X+679530Y-2571579D01*
X+647797Y-2619109D01*
X+638159Y-2650941D01*
X+635390Y-2679397D01*
X+635390Y-3349397D01*
X+634180Y-3361834D01*
X+632368Y-3367817D01*
X+621719Y-3383766D01*
X+605773Y-3394413D01*
X+599791Y-3396224D01*
X+587352Y-3397435D01*
X+279249Y-3397435D01*
X+279249Y-3102351D01*
X+88751Y-3102351D01*
X+88751Y-3397435D01*
X-38251Y-3397435D01*
X-38251Y-3102351D01*
X-69513Y-3102351D01*
X-69513Y-3078232D01*
X-33441Y-3042161D01*
X+166004Y-3042160D01*
X+794665Y-2413499D01*
X+913951Y-2413499D01*
X+913951Y-2496049D01*
X+1206049Y-2496049D01*
X+1206049Y-1986049D01*
X+1461049Y-1986049D01*
X+1461049Y-1183951D01*
X+1378499Y-1183951D01*
X+1378499Y-1142451D01*
X+1399759Y-1163711D01*
G37*
%LPC*%
G36*
X+472501Y-3193946D02*
X+472501Y-3162382D01*
X+494819Y-3140064D01*
X+526383Y-3140064D01*
X+548701Y-3162382D01*
X+548701Y-3193946D01*
X+526383Y-3216264D01*
X+494819Y-3216264D01*
X+472501Y-3193946D01*
G37*
%LPD*%
G36*
X+913951Y+2363499D02*
X+886301Y+2363499D01*
X+820474Y+2429326D01*
X+839792Y+2429326D01*
X+888148Y+2477682D01*
X+888148Y+2546068D01*
X+839792Y+2594424D01*
X+807462Y+2594424D01*
X+798697Y+2603189D01*
X+913951Y+2603189D01*
X+913951Y+2363499D01*
G37*
G36*
X+1425311Y+2489236D02*
X+1425311Y+1861049D01*
X+1168951Y+1861049D01*
X+1168951Y+1598942D01*
X+1154295Y+1613598D01*
X+1154295Y+2169631D01*
X+989975Y+2333951D01*
X+1206049Y+2333951D01*
X+1206049Y+2603189D01*
X+1311358Y+2603189D01*
X+1425311Y+2489236D01*
G37*
G36*
X+1425311Y+346049D02*
X+1378499Y+346049D01*
X+1378499Y+1389394D01*
X+1198942Y+1568951D01*
X+1425311Y+1568951D01*
X+1425311Y+346049D01*
G37*
D10*
X-19147Y+3187940D02*
X-216062Y+3187940D01*
X-331114Y+3072888D01*
X+1060000Y-2350000D02*
X+768364Y-2350000D01*
X+139702Y-2978662D01*
X-59743Y-2978662D01*
X-133012Y-3051931D01*
X-133012Y-3273312D01*
X-133500Y-3273800D01*
X+1124322Y-659618D02*
X+1124322Y-590000D01*
X+1124322Y-474323D01*
X+953963Y-303964D01*
X+953963Y-301194D01*
X+386534Y+266235D01*
X-559629Y+266235D01*
X+1315000Y-1330000D02*
X+1315000Y-895000D01*
X+1124322Y-704322D01*
X+1124322Y-659618D01*
X+1055000Y-730000D02*
X+1226046Y-901046D01*
X+1226046Y-1082990D01*
X+1122288Y-1186748D01*
X+1122288Y-1317483D01*
X+1122288Y-1528971D01*
X+1178317Y-1585000D01*
X-558031Y+107921D02*
X+429394Y+107921D01*
X+907315Y-370000D01*
X+1055000Y-526491D01*
X+1055000Y-730000D01*
X+1178317Y-1585000D02*
X+1315000Y-1585000D01*
X+585000Y-645000D02*
X+800785Y-645785D01*
X+1075000Y-980000D01*
D11*
X+1433952Y-1081162D02*
X+1485000Y-1030114D01*
X+1485000Y+2513959D01*
X+1336081Y+2662878D01*
X+764024Y+2662878D01*
X+643464Y+2783438D01*
X+411562Y+2783438D01*
X+980000Y-1060000D02*
X+860000Y-1040000D01*
X+345000Y-1045000D01*
X+353233Y-1047195D01*
X+300379Y+2540379D02*
X+390034Y+2635000D01*
X+682474Y+2635000D01*
X+805599Y+2511875D01*
D10*
X+396650Y+2300000D02*
X+523006Y+2300000D01*
X+556925Y+2333919D01*
X+726081Y+2333919D01*
X+830000Y+2230000D01*
X+905954Y+2230000D01*
X+906508Y+2230554D01*
X+1015390Y+2121672D01*
X+1015390Y+1563033D01*
X+1247962Y+1330461D01*
X+1247962Y+572962D01*
X+1065000Y+390000D01*
X+1065000Y+205000D01*
X+1060000Y+200000D01*
X+393797Y+2409599D02*
X+750401Y+2409599D01*
X+860000Y+2300000D01*
X+934126Y+2300000D01*
X+1090796Y+2143330D01*
X+1090796Y+1587297D01*
X+1315000Y+1363093D01*
X+1315000Y+200000D01*
X+195000Y+2505000D02*
X+193517Y+1823517D01*
X+232529Y+1784505D01*
X+785454Y+1784505D01*
X+788333Y+1781626D01*
X-1180000Y-100000D02*
X-1185060Y-100000D01*
X-59743Y-2978662D02*
X-371338Y-2978662D01*
X-480000Y-2870000D01*
X-480000Y-2680001D01*
X-660001Y-2500000D01*
X-1078327Y-2500000D01*
X-1185060Y-2393267D01*
X-1185060Y-100000D01*
X-1185060Y+1638983D01*
X-1009043Y+1815000D01*
X-61578Y+1815000D01*
D12*
X-19147Y+3187940D03*
X-331114Y+3072888D03*
X-559629Y+266235D03*
X-558031Y+107921D03*
X+510601Y-3178164D03*
X+585000Y-645000D03*
X+1075000Y-980000D03*
X+1433952Y-1081162D03*
X+411562Y+2783438D03*
X+980000Y-1060000D03*
X+353233Y-1047195D03*
X+300379Y+2540379D03*
X+805599Y+2511875D03*
X+396650Y+2300000D03*
X+393797Y+2409599D03*
X+195000Y+2505000D03*
X+788333Y+1781626D03*
X-61578Y+1815000D03*
X-1180000Y-100000D03*
D10*
X+1399759Y-1163711D02*
X+1468145Y-1163711D01*
X+1485390Y-1146466D01*
X+1485390Y-2479397D01*
X+1484180Y-2491834D01*
X+1482368Y-2497817D01*
X+1471719Y-2513766D01*
X+1455773Y-2524413D01*
X+1449791Y-2526224D01*
X+1437341Y-2527436D01*
X+787341Y-2527436D01*
X+782569Y-2527900D01*
X+758897Y-2530204D01*
X+727060Y-2539844D01*
X+679530Y-2571579D01*
X+647797Y-2619109D01*
X+638159Y-2650941D01*
X+635390Y-2679397D01*
X+635390Y-3349397D01*
X+634180Y-3361834D01*
X+632368Y-3367817D01*
X+621719Y-3383766D01*
X+605773Y-3394413D01*
X+599791Y-3396224D01*
X+587352Y-3397435D01*
X+279249Y-3397435D01*
X+279249Y-3102351D01*
X+88751Y-3102351D01*
X+88751Y-3397435D01*
X-38251Y-3397435D01*
X-38251Y-3102351D01*
X-69513Y-3102351D01*
X-69513Y-3078232D01*
X-33441Y-3042161D01*
X+166004Y-3042160D01*
X+794665Y-2413499D01*
X+913951Y-2413499D01*
X+913951Y-2496049D01*
X+1206049Y-2496049D01*
X+1206049Y-1986049D01*
X+1461049Y-1986049D01*
X+1461049Y-1183951D01*
X+1378499Y-1183951D01*
X+1378499Y-1142451D01*
X+1399759Y-1163711D01*
X+472501Y-3193946D02*
X+472501Y-3162382D01*
X+494819Y-3140064D01*
X+526383Y-3140064D01*
X+548701Y-3162382D01*
X+548701Y-3193946D01*
X+526383Y-3216264D01*
X+494819Y-3216264D01*
X+472501Y-3193946D01*
X+913951Y+2363499D02*
X+886301Y+2363499D01*
X+820474Y+2429326D01*
X+839792Y+2429326D01*
X+888148Y+2477682D01*
X+888148Y+2546068D01*
X+839792Y+2594424D01*
X+807462Y+2594424D01*
X+798697Y+2603189D01*
X+913951Y+2603189D01*
X+913951Y+2363499D01*
X+1425311Y+2489236D02*
X+1425311Y+1861049D01*
X+1168951Y+1861049D01*
X+1168951Y+1598942D01*
X+1154295Y+1613598D01*
X+1154295Y+2169631D01*
X+989975Y+2333951D01*
X+1206049Y+2333951D01*
X+1206049Y+2603189D01*
X+1311358Y+2603189D01*
X+1425311Y+2489236D01*
X+1425311Y+346049D02*
X+1378499Y+346049D01*
X+1378499Y+1389394D01*
X+1198942Y+1568951D01*
X+1425311Y+1568951D01*
X+1425311Y+346049D01*
D13*
X+913951Y+2480000D02*
X+1060000Y+2480000D01*
X+1206049Y+2480000D02*
X+1060000Y+2480000D01*
X+1060000Y+2333951D02*
X+1060000Y+2480000D01*
X+1168951Y+1715000D02*
X+1315000Y+1715000D01*
X+1315000Y+1568951D02*
X+1315000Y+1715000D01*
X+1315000Y+1861049D02*
X+1315000Y+1715000D01*
X+1461049Y-1840000D02*
X+1315000Y-1840000D01*
X+1315000Y-1986049D02*
X+1315000Y-1840000D01*
D14*
X-133500Y-3273800D03*
X+184000Y-3273800D03*
D15*
X+1315000Y-570000D03*
X+1060000Y-60000D03*
X+1060000Y-2095000D03*
X+1060000Y-1840000D03*
X+1060000Y-2350000D03*
X+1060000Y+2480000D03*
X+1315000Y+1715000D03*
X+1060000Y+200000D03*
X+1315000Y+200000D03*
X+1315000Y-1585000D03*
X+1315000Y-1330000D03*
X+1315000Y-1840000D03*
D23*
X-610000Y-3352045D02*
X-608010Y-3372492D01*
X-602285Y-3391400D01*
X-581094Y-3423139D01*
X-549356Y-3444330D01*
X-530447Y-3450055D01*
X-510000Y-3452045D01*
X-610000Y-3352045D02*
X-610000Y-2682045D01*
X-611990Y-2661598D01*
X-617715Y-2642690D01*
X-638906Y-2610951D01*
X-670644Y-2589760D01*
X-689553Y-2584035D01*
X-710000Y-2582045D01*
X-1190000Y-2582045D01*
X-1290000Y-2482045D02*
X-1288010Y-2502492D01*
X-1282285Y-2521400D01*
X-1261094Y-2553139D01*
X-1229356Y-2574330D01*
X-1210447Y-2580055D01*
X-1190000Y-2582045D01*
X-1290000Y-2482045D02*
X-1290000Y+2617964D01*
X-1288010Y+2638411D01*
X-1282285Y+2657319D01*
X-1261094Y+2689058D01*
X-1229356Y+2710249D01*
X-1210447Y+2715974D01*
X-1190000Y+2717964D01*
X-750000Y+2717964D01*
X-650000Y+2817964D02*
X-651990Y+2797517D01*
X-657715Y+2778609D01*
X-678906Y+2746870D01*
X-710644Y+2725679D01*
X-729553Y+2719954D01*
X-750000Y+2717964D01*
X-650000Y+2817964D02*
X-650000Y+3218300D01*
X-648010Y+3238747D01*
X-642285Y+3257655D01*
X-621094Y+3289394D01*
X-589356Y+3310585D01*
X-570447Y+3316310D01*
X-550000Y+3318300D01*
X+630000Y+3318300D01*
X+730000Y+3218300D02*
X+728010Y+3238747D01*
X+722285Y+3257655D01*
X+701094Y+3289394D01*
X+669356Y+3310585D01*
X+650447Y+3316310D01*
X+630000Y+3318300D01*
X+730000Y+3218300D02*
X+730000Y+2817964D01*
X+731990Y+2797517D01*
X+737715Y+2778609D01*
X+758906Y+2746870D01*
X+790644Y+2725679D01*
X+809553Y+2719954D01*
X+830000Y+2717964D01*
X+1440000Y+2717964D01*
X+1540000Y+2617964D02*
X+1538010Y+2638411D01*
X+1532285Y+2657319D01*
X+1511094Y+2689058D01*
X+1479356Y+2710249D01*
X+1460447Y+2715974D01*
X+1440000Y+2717964D01*
X+1540000Y+2617964D02*
X+1540000Y-2482045D01*
X+1538010Y-2502492D01*
X+1532285Y-2521400D01*
X+1511094Y-2553139D01*
X+1479356Y-2574330D01*
X+1460447Y-2580055D01*
X+1440000Y-2582045D01*
X+790000Y-2582045D01*
X+690000Y-2682045D02*
X+691990Y-2661598D01*
X+697715Y-2642690D01*
X+718906Y-2610951D01*
X+750644Y-2589760D01*
X+769553Y-2584035D01*
X+790000Y-2582045D01*
X+690000Y-2682045D02*
X+690000Y-3352045D01*
X+688010Y-3372492D01*
X+682285Y-3391400D01*
X+661094Y-3423139D01*
X+629356Y-3444330D01*
X+610447Y-3450055D01*
X+590000Y-3452045D01*
X+302500Y-3452045D01*
X-222500Y-3452045D02*
X-510000Y-3452045D01*
X+302500Y-3452045D02*
X-222500Y-3452045D01*
M02*
