M48
METRIC,TZ
T01C0.3810
T02C1.0160
%
T01
X-191Y+31879
X-3311Y+30729
X-5596Y+2662
X-5580Y+1079
X+5106Y-31782
X+5850Y-6450
X+10750Y-9800
X+14340Y-10812
X+4116Y+27834
X+9800Y-10600
X+3532Y-10472
X+3004Y+25404
X+8056Y+25119
X+3966Y+23000
X+3938Y+24096
X+1950Y+25050
X+7883Y+17816
X-616Y+18150
X-11800Y-1000
T02
X+13150Y-5700
X+10600Y-600
X+10600Y-20950
X+10600Y-18400
X+10600Y-23500
X+10600Y+24800
X+13150Y+17150
X+10600Y+2000
X+13150Y+2000
X+13150Y-15850
X+13150Y-13300
X+13150Y-18400
M30
