G04 PROTEUS RS274X GERBER FILE*
%FSLAX45Y45*%
%MOMM*%
G01*
%ADD28C,1.270000*%
%AMPPAD031*
4,1,48,
-0.508000,-1.524000,
0.508000,-1.524000,
0.534400,-1.522720,
0.559930,-1.518950,
0.584490,-1.512800,
0.630220,-1.493870,
0.670650,-1.466840,
0.704840,-1.432640,
0.731860,-1.392220,
0.750800,-1.346490,
0.756950,-1.321930,
0.760720,-1.296400,
0.762000,-1.270000,
0.762000,1.270000,
0.760720,1.296400,
0.756950,1.321930,
0.750800,1.346490,
0.731860,1.392220,
0.704840,1.432640,
0.670650,1.466840,
0.630220,1.493870,
0.584490,1.512800,
0.559930,1.518950,
0.534400,1.522720,
0.508000,1.524000,
-0.508000,1.524000,
-0.534400,1.522720,
-0.559930,1.518950,
-0.584490,1.512800,
-0.630220,1.493870,
-0.670650,1.466840,
-0.704840,1.432640,
-0.731860,1.392220,
-0.750800,1.346490,
-0.756950,1.321930,
-0.760720,1.296400,
-0.762000,1.270000,
-0.762000,-1.270000,
-0.760720,-1.296400,
-0.756950,-1.321930,
-0.750800,-1.346490,
-0.731860,-1.392220,
-0.704840,-1.432640,
-0.670650,-1.466840,
-0.630220,-1.493870,
-0.584490,-1.512800,
-0.559930,-1.518950,
-0.534400,-1.522720,
-0.508000,-1.524000,
0*%
%ADD37PPAD031*%
%AMPPAD022*
4,1,48,
-1.016000,1.270000,
1.016000,1.270000,
1.042400,1.268720,
1.067930,1.264950,
1.092490,1.258800,
1.138220,1.239870,
1.178650,1.212840,
1.212840,1.178640,
1.239860,1.138220,
1.258800,1.092490,
1.264950,1.067930,
1.268720,1.042400,
1.270000,1.016000,
1.270000,-1.016000,
1.268720,-1.042400,
1.264950,-1.067930,
1.258800,-1.092490,
1.239860,-1.138220,
1.212840,-1.178640,
1.178650,-1.212840,
1.138220,-1.239870,
1.092490,-1.258800,
1.067930,-1.264950,
1.042400,-1.268720,
1.016000,-1.270000,
-1.016000,-1.270000,
-1.042400,-1.268720,
-1.067930,-1.264950,
-1.092490,-1.258800,
-1.138220,-1.239870,
-1.178650,-1.212840,
-1.212840,-1.178640,
-1.239860,-1.138220,
-1.258800,-1.092490,
-1.264950,-1.067930,
-1.268720,-1.042400,
-1.270000,-1.016000,
-1.270000,1.016000,
-1.268720,1.042400,
-1.264950,1.067930,
-1.258800,1.092490,
-1.239860,1.138220,
-1.212840,1.178640,
-1.178650,1.212840,
-1.138220,1.239870,
-1.092490,1.258800,
-1.067930,1.264950,
-1.042400,1.268720,
-1.016000,1.270000,
0*%
%ADD72PPAD022*%
%ADD23C,0.203200*%
D28*
X-19147Y+3187940D03*
X-331114Y+3072888D03*
X-559629Y+266235D03*
X-558031Y+107921D03*
X+510601Y-3178164D03*
X+585000Y-645000D03*
X+1075000Y-980000D03*
X+1433952Y-1081162D03*
X+411562Y+2783438D03*
X+980000Y-1060000D03*
X+353233Y-1047195D03*
X+300379Y+2540379D03*
X+805599Y+2511875D03*
X+396650Y+2300000D03*
X+393797Y+2409599D03*
X+195000Y+2505000D03*
X+788333Y+1781626D03*
X-61578Y+1815000D03*
X-1180000Y-100000D03*
D37*
X-133500Y-3273800D03*
X+184000Y-3273800D03*
D72*
X+1315000Y-570000D03*
X+1060000Y-60000D03*
X+1060000Y-2095000D03*
X+1060000Y-1840000D03*
X+1060000Y-2350000D03*
X+1060000Y+2480000D03*
X+1315000Y+1715000D03*
X+1060000Y+200000D03*
X+1315000Y+200000D03*
X+1315000Y-1585000D03*
X+1315000Y-1330000D03*
X+1315000Y-1840000D03*
D23*
X-610000Y-3352045D02*
X-608010Y-3372492D01*
X-602285Y-3391400D01*
X-581094Y-3423139D01*
X-549356Y-3444330D01*
X-530447Y-3450055D01*
X-510000Y-3452045D01*
X-610000Y-3352045D02*
X-610000Y-2682045D01*
X-611990Y-2661598D01*
X-617715Y-2642690D01*
X-638906Y-2610951D01*
X-670644Y-2589760D01*
X-689553Y-2584035D01*
X-710000Y-2582045D01*
X-1190000Y-2582045D01*
X-1290000Y-2482045D02*
X-1288010Y-2502492D01*
X-1282285Y-2521400D01*
X-1261094Y-2553139D01*
X-1229356Y-2574330D01*
X-1210447Y-2580055D01*
X-1190000Y-2582045D01*
X-1290000Y-2482045D02*
X-1290000Y+2617964D01*
X-1288010Y+2638411D01*
X-1282285Y+2657319D01*
X-1261094Y+2689058D01*
X-1229356Y+2710249D01*
X-1210447Y+2715974D01*
X-1190000Y+2717964D01*
X-750000Y+2717964D01*
X-650000Y+2817964D02*
X-651990Y+2797517D01*
X-657715Y+2778609D01*
X-678906Y+2746870D01*
X-710644Y+2725679D01*
X-729553Y+2719954D01*
X-750000Y+2717964D01*
X-650000Y+2817964D02*
X-650000Y+3218300D01*
X-648010Y+3238747D01*
X-642285Y+3257655D01*
X-621094Y+3289394D01*
X-589356Y+3310585D01*
X-570447Y+3316310D01*
X-550000Y+3318300D01*
X+630000Y+3318300D01*
X+730000Y+3218300D02*
X+728010Y+3238747D01*
X+722285Y+3257655D01*
X+701094Y+3289394D01*
X+669356Y+3310585D01*
X+650447Y+3316310D01*
X+630000Y+3318300D01*
X+730000Y+3218300D02*
X+730000Y+2817964D01*
X+731990Y+2797517D01*
X+737715Y+2778609D01*
X+758906Y+2746870D01*
X+790644Y+2725679D01*
X+809553Y+2719954D01*
X+830000Y+2717964D01*
X+1440000Y+2717964D01*
X+1540000Y+2617964D02*
X+1538010Y+2638411D01*
X+1532285Y+2657319D01*
X+1511094Y+2689058D01*
X+1479356Y+2710249D01*
X+1460447Y+2715974D01*
X+1440000Y+2717964D01*
X+1540000Y+2617964D02*
X+1540000Y-2482045D01*
X+1538010Y-2502492D01*
X+1532285Y-2521400D01*
X+1511094Y-2553139D01*
X+1479356Y-2574330D01*
X+1460447Y-2580055D01*
X+1440000Y-2582045D01*
X+790000Y-2582045D01*
X+690000Y-2682045D02*
X+691990Y-2661598D01*
X+697715Y-2642690D01*
X+718906Y-2610951D01*
X+750644Y-2589760D01*
X+769553Y-2584035D01*
X+790000Y-2582045D01*
X+690000Y-2682045D02*
X+690000Y-3352045D01*
X+688010Y-3372492D01*
X+682285Y-3391400D01*
X+661094Y-3423139D01*
X+629356Y-3444330D01*
X+610447Y-3450055D01*
X+590000Y-3452045D01*
X+302500Y-3452045D01*
X-222500Y-3452045D02*
X-510000Y-3452045D01*
X+302500Y-3452045D02*
X-222500Y-3452045D01*
M02*
