G04 PROTEUS RS274X GERBER FILE*
%FSLAX45Y45*%
%MOMM*%
G01*
%ADD10C,0.381000*%
%ADD11C,0.762000*%
%ADD12C,0.254000*%
%ADD13R,1.016000X2.540000*%
%ADD14R,1.016000X1.270000*%
%ADD15R,2.540000X3.556000*%
%ADD16R,2.032000X2.032000*%
%ADD17R,0.990000X0.405000*%
%ADD18R,0.405000X0.990000*%
%ADD19C,8.483600*%
%ADD70R,0.635000X2.032000*%
%ADD71C,0.203200*%
G36*
X+639791Y+3262479D02*
X+645773Y+3260668D01*
X+661719Y+3250021D01*
X+672368Y+3234072D01*
X+674180Y+3228089D01*
X+675390Y+3215652D01*
X+675390Y+2815316D01*
X+678159Y+2786860D01*
X+687797Y+2755028D01*
X+692298Y+2748286D01*
X+719530Y+2707498D01*
X+767060Y+2675763D01*
X+774820Y+2673413D01*
X+798897Y+2666123D01*
X+827352Y+2663354D01*
X+1437352Y+2663354D01*
X+1449791Y+2662143D01*
X+1455773Y+2660332D01*
X+1471719Y+2649685D01*
X+1482368Y+2633736D01*
X+1484180Y+2627753D01*
X+1485390Y+2615316D01*
X+1485390Y-2479397D01*
X+1484180Y-2491834D01*
X+1482368Y-2497817D01*
X+1471719Y-2513766D01*
X+1455773Y-2524413D01*
X+1449791Y-2526224D01*
X+1437341Y-2527436D01*
X+787341Y-2527436D01*
X+782569Y-2527900D01*
X+758897Y-2530204D01*
X+727060Y-2539844D01*
X+679530Y-2571579D01*
X+647797Y-2619109D01*
X+638159Y-2650941D01*
X+635390Y-2679397D01*
X+635390Y-3349397D01*
X+634180Y-3361834D01*
X+632368Y-3367817D01*
X+621719Y-3383766D01*
X+605773Y-3394413D01*
X+599791Y-3396224D01*
X+587352Y-3397435D01*
X+279249Y-3397435D01*
X+279249Y-3102351D01*
X+88751Y-3102351D01*
X+88751Y-3397435D01*
X-38251Y-3397435D01*
X-38251Y-3102351D01*
X-72049Y-3102351D01*
X-72049Y-2909486D01*
X-52999Y-2890436D01*
X-52999Y-2822050D01*
X-101355Y-2773694D01*
X-169741Y-2773694D01*
X-218097Y-2822050D01*
X-218097Y-2890436D01*
X-199047Y-2909486D01*
X-199047Y-3102351D01*
X-228749Y-3102351D01*
X-228749Y-3397435D01*
X-507352Y-3397435D01*
X-519791Y-3396224D01*
X-525773Y-3394413D01*
X-541719Y-3383766D01*
X-552368Y-3367817D01*
X-554180Y-3361834D01*
X-555390Y-3349397D01*
X-555390Y-2679397D01*
X-558159Y-2650941D01*
X-567797Y-2619109D01*
X-572298Y-2612367D01*
X-599530Y-2571579D01*
X-647060Y-2539844D01*
X-654820Y-2537494D01*
X-678897Y-2530204D01*
X-707352Y-2527435D01*
X-1187352Y-2527435D01*
X-1199791Y-2526224D01*
X-1205773Y-2524413D01*
X-1221719Y-2513766D01*
X-1232368Y-2497817D01*
X-1234180Y-2491834D01*
X-1235390Y-2479397D01*
X-1235390Y+1406151D01*
X-1168811Y+1406151D01*
X-1120455Y+1454507D01*
X-1120455Y+1481449D01*
X-954861Y+1647043D01*
X-954861Y+1752051D01*
X-923111Y+1752051D01*
X-923111Y+1808810D01*
X-900249Y+1831672D01*
X-900249Y+1752051D01*
X-764655Y+1752051D01*
X-1098698Y+1418008D01*
X-1098698Y+1266449D01*
X-1206649Y+1266449D01*
X-1206649Y+821951D01*
X-863751Y+821951D01*
X-863751Y+1266449D01*
X-971702Y+1266449D01*
X-971702Y+1365404D01*
X-475361Y+1861745D01*
X-449499Y+1897304D01*
X-449499Y+1864998D01*
X-450020Y+1864477D01*
X-450020Y+1811873D01*
X-412824Y+1774677D01*
X-360220Y+1774677D01*
X-322501Y+1812396D01*
X-322501Y+1959551D01*
X+312501Y+1959551D01*
X+312501Y+1899008D01*
X+470066Y+1741443D01*
X+470066Y+1489461D01*
X+649529Y+1309998D01*
X+702196Y+1309998D01*
X+745745Y+1266449D01*
X+457051Y+1266449D01*
X+457051Y+821951D01*
X+776501Y+821951D01*
X+776501Y+631302D01*
X+141501Y-3698D01*
X+141501Y-527451D01*
X+127921Y-527451D01*
X+79565Y-575807D01*
X+79565Y-644193D01*
X+127921Y-692549D01*
X+196307Y-692549D01*
X+244663Y-644193D01*
X+244663Y-617251D01*
X+260200Y-601714D01*
X+260200Y-1482724D01*
X+270987Y-1507198D01*
X+280860Y-1516222D01*
X+438753Y-1660533D01*
X+960211Y-1660533D01*
X+993629Y-1693951D01*
X+913951Y-1693951D01*
X+913951Y-2496049D01*
X+1206049Y-2496049D01*
X+1206049Y-2492749D01*
X+1460349Y-2492749D01*
X+1460349Y-2200651D01*
X+1206049Y-2200651D01*
X+1206049Y-1693951D01*
X+1123499Y-1693951D01*
X+1123499Y-1644221D01*
X+1012815Y-1533537D01*
X+888849Y-1533537D01*
X+888849Y-1470399D01*
X+1189402Y-1470398D01*
X+1378499Y-1281301D01*
X+1378499Y-716049D01*
X+1461049Y-716049D01*
X+1461049Y-423951D01*
X+1168951Y-423951D01*
X+1168951Y-716049D01*
X+1251501Y-716049D01*
X+1251501Y-1228699D01*
X+1136798Y-1343402D01*
X+888849Y-1343401D01*
X+888849Y-1260851D01*
X+596751Y-1260851D01*
X+596751Y-1533537D01*
X+488047Y-1533537D01*
X+387198Y-1441363D01*
X+387198Y-111421D01*
X+1003076Y+504457D01*
X+1003076Y+1379263D01*
X+905288Y+1477051D01*
X+1000249Y+1477051D01*
X+1000249Y+1692949D01*
X+968499Y+1692949D01*
X+968499Y+1717051D01*
X+1003149Y+1717051D01*
X+1003149Y+1932949D01*
X+971399Y+1932949D01*
X+971399Y+2103773D01*
X+934201Y+2140970D01*
X+437620Y+2637552D01*
X+437620Y+2873951D01*
X+579199Y+2873951D01*
X+579199Y+3166049D01*
X-462199Y+3166049D01*
X-462199Y+2873951D01*
X+310622Y+2873951D01*
X+310622Y+2674749D01*
X-534949Y+2674749D01*
X-598699Y+2738499D01*
X-618832Y+2738499D01*
X-607797Y+2755028D01*
X-598159Y+2786860D01*
X-595390Y+2815316D01*
X-595390Y+3215652D01*
X-594180Y+3228089D01*
X-592368Y+3234072D01*
X-581719Y+3250021D01*
X-565773Y+3260668D01*
X-559791Y+3262479D01*
X-547352Y+3263690D01*
X+627352Y+3263690D01*
X+639791Y+3262479D01*
G37*
%LPC*%
G36*
X-825649Y-1667251D02*
X-533551Y-1667251D01*
X-533551Y-1959349D01*
X-825649Y-1959349D01*
X-825649Y-1667251D01*
G37*
G36*
X-825649Y-1260851D02*
X-533551Y-1260851D01*
X-533551Y-1552949D01*
X-825649Y-1552949D01*
X-825649Y-1260851D01*
G37*
G36*
X+596751Y-1667251D02*
X+888849Y-1667251D01*
X+888849Y-1959349D01*
X+596751Y-1959349D01*
X+596751Y-1667251D01*
G37*
G36*
X+1461049Y+53951D02*
X+1206049Y+53951D01*
X+1206049Y-206049D01*
X+913951Y-206049D01*
X+913951Y+346049D01*
X+1461049Y+346049D01*
X+1461049Y+53951D01*
G37*
G36*
X+913951Y+2626049D02*
X+1206049Y+2626049D01*
X+1206049Y+2333951D01*
X+913951Y+2333951D01*
X+913951Y+2626049D01*
G37*
G36*
X+1168951Y+1861049D02*
X+1461049Y+1861049D01*
X+1461049Y+1568951D01*
X+1168951Y+1568951D01*
X+1168951Y+1861049D01*
G37*
G36*
X-188Y+593271D02*
X-388412Y+593271D01*
X-662929Y+867788D01*
X-662929Y+1256012D01*
X-388412Y+1530529D01*
X-188Y+1530529D01*
X+274329Y+1256012D01*
X+274329Y+867788D01*
X-188Y+593271D01*
G37*
%LPD*%
G36*
X+164684Y+2251649D02*
X-409551Y+2251649D01*
X-388195Y+2273005D01*
X+143328Y+2273005D01*
X+164684Y+2251649D01*
G37*
G36*
X-913449Y+2326601D02*
X-913449Y+2143949D01*
X-945551Y+2143949D01*
X-945551Y+2327801D01*
X-913449Y+2327801D01*
X-913449Y+2326601D01*
G37*
G36*
X-1133449Y+2407802D02*
X-1133449Y+2134799D01*
X-1181501Y+2134799D01*
X-1181501Y+2407802D01*
X-1133449Y+2407802D01*
G37*
G36*
X-708129Y+1994196D02*
X-708129Y+1967254D01*
X-659773Y+1918898D01*
X-597808Y+1918898D01*
X-709751Y+1806955D01*
X-709751Y+1967949D01*
X-865301Y+1967949D01*
X-865301Y+2006601D01*
X-725551Y+2006601D01*
X-725551Y+2007801D01*
X-721734Y+2007801D01*
X-708129Y+1994196D01*
G37*
D10*
X+1315000Y-570000D02*
X+1315000Y-1255000D01*
X+1163100Y-1406900D01*
X+742800Y-1406900D01*
X-135548Y-2856243D02*
X-135548Y-3271752D01*
X-133500Y-3273800D01*
X-1203004Y+1488700D02*
X-1199652Y+1485348D01*
X-1245000Y+1618360D02*
X-1245000Y+1580000D01*
X-1245000Y+1530696D01*
X-1203004Y+1488700D01*
X-1245000Y+1805486D02*
X-1245000Y+1618360D01*
X+688735Y+1830805D02*
X+693735Y+1830805D01*
X+694540Y+1830000D01*
X+688735Y+1830805D02*
X+694540Y+1825000D01*
X+694540Y+1830000D01*
X+905000Y+1585000D02*
X+905000Y+1832100D01*
X+907900Y+1835000D01*
X+691640Y+1585000D02*
X+774668Y+1585000D01*
X+794662Y+1604994D01*
X-1039500Y+2071300D02*
X-1227362Y+2071300D01*
X-1245000Y+2053662D01*
X-1245000Y+1805486D01*
X+640000Y+1820000D02*
X+677930Y+1820000D01*
X+688735Y+1820000D01*
X+688735Y+1830805D01*
X+677930Y+1820000D02*
X+688735Y+1830805D01*
X+795000Y+1587260D02*
X+794662Y+1604994D01*
X+533565Y+1767744D02*
X+376000Y+1925309D01*
X+376000Y+2105600D01*
X+533565Y+1767744D02*
X+586626Y+1820805D01*
X+635781Y+1820805D01*
X+635781Y+1820000D01*
X+640000Y+1820000D01*
X-819500Y+2391300D02*
X-817316Y+2391300D01*
X-749166Y+2391300D01*
X-659359Y+2301493D01*
X-620637Y+2301493D01*
X-619148Y+2302982D01*
X-619148Y+2303727D01*
X-1039500Y+2391300D02*
X-817316Y+2391300D01*
X-815847Y+2392769D01*
X-819500Y+2391300D01*
X-386000Y+2105600D02*
X-386000Y+1838697D01*
X-386522Y+1838175D01*
X-625000Y+2151921D02*
X-818879Y+2151921D01*
X-819500Y+2151300D01*
X-625580Y+2001447D02*
X-695433Y+2071300D01*
X-819500Y+2071300D01*
X-930000Y+2050000D02*
X-930000Y+1891721D01*
X-962537Y+1859184D01*
X-1017544Y+1859184D01*
X-1018360Y+1860000D01*
X-1018360Y+1673344D01*
X-1203004Y+1488700D01*
X+907900Y+1825000D02*
X+907900Y+1835000D01*
X-1245000Y+2460000D02*
X-1245000Y+2440000D01*
X-1039500Y+2471300D02*
X-1233700Y+2471300D01*
X-1245000Y+2460000D01*
X-1245000Y+2440000D02*
X-1245000Y+2053662D01*
X+374121Y+2611250D02*
X+374121Y+3018121D01*
X+376000Y+3020000D01*
X+1060000Y-1840000D02*
X+1060000Y-1670522D01*
X+986513Y-1597035D01*
X+463400Y-1597035D01*
X+323699Y-1469351D01*
X+323699Y-85120D01*
X+939577Y+530758D01*
X+939577Y+1352962D01*
X+795000Y+1497539D01*
X+795000Y+1587260D01*
X+907900Y+1835000D02*
X+907900Y+2077471D01*
X+374121Y+2611250D01*
X-1035200Y+1044200D02*
X-1035200Y+1391706D01*
X-523783Y+1903123D01*
X-493635Y+1944576D01*
X-493635Y+2257365D01*
X-414496Y+2336504D01*
X+169629Y+2336504D01*
X+248768Y+2257365D01*
X+248768Y+2105832D01*
X+249000Y+2105600D01*
X+505000Y+2345000D02*
X+810000Y+2040000D01*
X+810000Y+1917860D01*
X+809444Y+1917304D01*
X+809444Y+1693186D01*
X+795000Y+1678742D01*
X+795000Y+1587260D01*
X-819500Y+2471300D02*
X-702448Y+2471300D01*
X-651148Y+2420000D01*
X+280001Y+2420000D01*
X+376703Y+2323298D01*
X+376703Y+2106303D01*
X+376000Y+2105600D01*
X+374121Y+2611250D02*
X-561250Y+2611250D01*
X-625000Y+2675000D01*
X-1096712Y+2675000D01*
X-1245000Y+2526712D01*
X-1245000Y+2460000D01*
X-929500Y+2481300D02*
X-929500Y+2545500D01*
X-905000Y+2570000D01*
X-676971Y+2570000D01*
X-626971Y+2520000D01*
X+329999Y+2520000D01*
X+505000Y+2345000D01*
X+503000Y+2105600D01*
X+162114Y-610000D02*
X+205000Y-567114D01*
X+205000Y-29999D01*
X+840000Y+605001D01*
X+840000Y+1261994D01*
X+728497Y+1373497D01*
X+675830Y+1373497D01*
X+533565Y+1515762D01*
X+533565Y+1767744D01*
D11*
X-135548Y-2856243D03*
X-1203004Y+1488700D03*
X-619148Y+2303727D03*
X-386522Y+1838175D03*
X-625000Y+2151921D03*
X-625580Y+2001447D03*
X+162114Y-610000D03*
D10*
X+639791Y+3262479D02*
X+645773Y+3260668D01*
X+661719Y+3250021D01*
X+672368Y+3234072D01*
X+674180Y+3228089D01*
X+675390Y+3215652D01*
X+675390Y+2815316D01*
X+678159Y+2786860D01*
X+687797Y+2755028D01*
X+692298Y+2748286D01*
X+719530Y+2707498D01*
X+767060Y+2675763D01*
X+774820Y+2673413D01*
X+798897Y+2666123D01*
X+827352Y+2663354D01*
X+1437352Y+2663354D01*
X+1449791Y+2662143D01*
X+1455773Y+2660332D01*
X+1471719Y+2649685D01*
X+1482368Y+2633736D01*
X+1484180Y+2627753D01*
X+1485390Y+2615316D01*
X+1485390Y-2479397D01*
X+1484180Y-2491834D01*
X+1482368Y-2497817D01*
X+1471719Y-2513766D01*
X+1455773Y-2524413D01*
X+1449791Y-2526224D01*
X+1437341Y-2527436D01*
X+787341Y-2527436D01*
X+782569Y-2527900D01*
X+758897Y-2530204D01*
X+727060Y-2539844D01*
X+679530Y-2571579D01*
X+647797Y-2619109D01*
X+638159Y-2650941D01*
X+635390Y-2679397D01*
X+635390Y-3349397D01*
X+634180Y-3361834D01*
X+632368Y-3367817D01*
X+621719Y-3383766D01*
X+605773Y-3394413D01*
X+599791Y-3396224D01*
X+587352Y-3397435D01*
X+279249Y-3397435D01*
X+279249Y-3102351D01*
X+88751Y-3102351D01*
X+88751Y-3397435D01*
X-38251Y-3397435D01*
X-38251Y-3102351D01*
X-72049Y-3102351D01*
X-72049Y-2909486D01*
X-52999Y-2890436D01*
X-52999Y-2822050D01*
X-101355Y-2773694D01*
X-169741Y-2773694D01*
X-218097Y-2822050D01*
X-218097Y-2890436D01*
X-199047Y-2909486D01*
X-199047Y-3102351D01*
X-228749Y-3102351D01*
X-228749Y-3397435D01*
X-507352Y-3397435D01*
X-519791Y-3396224D01*
X-525773Y-3394413D01*
X-541719Y-3383766D01*
X-552368Y-3367817D01*
X-554180Y-3361834D01*
X-555390Y-3349397D01*
X-555390Y-2679397D01*
X-558159Y-2650941D01*
X-567797Y-2619109D01*
X-572298Y-2612367D01*
X-599530Y-2571579D01*
X-647060Y-2539844D01*
X-654820Y-2537494D01*
X-678897Y-2530204D01*
X-707352Y-2527435D01*
X-1187352Y-2527435D01*
X-1199791Y-2526224D01*
X-1205773Y-2524413D01*
X-1221719Y-2513766D01*
X-1232368Y-2497817D01*
X-1234180Y-2491834D01*
X-1235390Y-2479397D01*
X-1235390Y+1406151D01*
X-1168811Y+1406151D01*
X-1120455Y+1454507D01*
X-1120455Y+1481449D01*
X-954861Y+1647043D01*
X-954861Y+1752051D01*
X-923111Y+1752051D01*
X-923111Y+1808810D01*
X-900249Y+1831672D01*
X-900249Y+1752051D01*
X-764655Y+1752051D01*
X-1098698Y+1418008D01*
X-1098698Y+1266449D01*
X-1206649Y+1266449D01*
X-1206649Y+821951D01*
X-863751Y+821951D01*
X-863751Y+1266449D01*
X-971702Y+1266449D01*
X-971702Y+1365404D01*
X-475361Y+1861745D01*
X-449499Y+1897304D01*
X-449499Y+1864998D01*
X-450020Y+1864477D01*
X-450020Y+1811873D01*
X-412824Y+1774677D01*
X-360220Y+1774677D01*
X-322501Y+1812396D01*
X-322501Y+1959551D01*
X+312501Y+1959551D01*
X+312501Y+1899008D01*
X+470066Y+1741443D01*
X+470066Y+1489461D01*
X+649529Y+1309998D01*
X+702196Y+1309998D01*
X+745745Y+1266449D01*
X+457051Y+1266449D01*
X+457051Y+821951D01*
X+776501Y+821951D01*
X+776501Y+631302D01*
X+141501Y-3698D01*
X+141501Y-527451D01*
X+127921Y-527451D01*
X+79565Y-575807D01*
X+79565Y-644193D01*
X+127921Y-692549D01*
X+196307Y-692549D01*
X+244663Y-644193D01*
X+244663Y-617251D01*
X+260200Y-601714D01*
X+260200Y-1482724D01*
X+270987Y-1507198D01*
X+280860Y-1516222D01*
X+438753Y-1660533D01*
X+960211Y-1660533D01*
X+993629Y-1693951D01*
X+913951Y-1693951D01*
X+913951Y-2496049D01*
X+1206049Y-2496049D01*
X+1206049Y-2492749D01*
X+1460349Y-2492749D01*
X+1460349Y-2200651D01*
X+1206049Y-2200651D01*
X+1206049Y-1693951D01*
X+1123499Y-1693951D01*
X+1123499Y-1644221D01*
X+1012815Y-1533537D01*
X+888849Y-1533537D01*
X+888849Y-1470399D01*
X+1189402Y-1470398D01*
X+1378499Y-1281301D01*
X+1378499Y-716049D01*
X+1461049Y-716049D01*
X+1461049Y-423951D01*
X+1168951Y-423951D01*
X+1168951Y-716049D01*
X+1251501Y-716049D01*
X+1251501Y-1228699D01*
X+1136798Y-1343402D01*
X+888849Y-1343401D01*
X+888849Y-1260851D01*
X+596751Y-1260851D01*
X+596751Y-1533537D01*
X+488047Y-1533537D01*
X+387198Y-1441363D01*
X+387198Y-111421D01*
X+1003076Y+504457D01*
X+1003076Y+1379263D01*
X+905288Y+1477051D01*
X+1000249Y+1477051D01*
X+1000249Y+1692949D01*
X+968499Y+1692949D01*
X+968499Y+1717051D01*
X+1003149Y+1717051D01*
X+1003149Y+1932949D01*
X+971399Y+1932949D01*
X+971399Y+2103773D01*
X+934201Y+2140970D01*
X+437620Y+2637552D01*
X+437620Y+2873951D01*
X+579199Y+2873951D01*
X+579199Y+3166049D01*
X-462199Y+3166049D01*
X-462199Y+2873951D01*
X+310622Y+2873951D01*
X+310622Y+2674749D01*
X-534949Y+2674749D01*
X-598699Y+2738499D01*
X-618832Y+2738499D01*
X-607797Y+2755028D01*
X-598159Y+2786860D01*
X-595390Y+2815316D01*
X-595390Y+3215652D01*
X-594180Y+3228089D01*
X-592368Y+3234072D01*
X-581719Y+3250021D01*
X-565773Y+3260668D01*
X-559791Y+3262479D01*
X-547352Y+3263690D01*
X+627352Y+3263690D01*
X+639791Y+3262479D01*
X-825649Y-1667251D02*
X-533551Y-1667251D01*
X-533551Y-1959349D01*
X-825649Y-1959349D01*
X-825649Y-1667251D01*
X-825649Y-1260851D02*
X-533551Y-1260851D01*
X-533551Y-1552949D01*
X-825649Y-1552949D01*
X-825649Y-1260851D01*
X+596751Y-1667251D02*
X+888849Y-1667251D01*
X+888849Y-1959349D01*
X+596751Y-1959349D01*
X+596751Y-1667251D01*
X+1461049Y+53951D02*
X+1206049Y+53951D01*
X+1206049Y-206049D01*
X+913951Y-206049D01*
X+913951Y+346049D01*
X+1461049Y+346049D01*
X+1461049Y+53951D01*
X+913951Y+2626049D02*
X+1206049Y+2626049D01*
X+1206049Y+2333951D01*
X+913951Y+2333951D01*
X+913951Y+2626049D01*
X+1168951Y+1861049D02*
X+1461049Y+1861049D01*
X+1461049Y+1568951D01*
X+1168951Y+1568951D01*
X+1168951Y+1861049D01*
X-188Y+593271D02*
X-388412Y+593271D01*
X-662929Y+867788D01*
X-662929Y+1256012D01*
X-388412Y+1530529D01*
X-188Y+1530529D01*
X+274329Y+1256012D01*
X+274329Y+867788D01*
X-188Y+593271D01*
X+164684Y+2251649D02*
X-409551Y+2251649D01*
X-388195Y+2273005D01*
X+143328Y+2273005D01*
X+164684Y+2251649D01*
X-913449Y+2326601D02*
X-913449Y+2143949D01*
X-945551Y+2143949D01*
X-945551Y+2327801D01*
X-913449Y+2327801D01*
X-913449Y+2326601D01*
X-1133449Y+2407802D02*
X-1133449Y+2134799D01*
X-1181501Y+2134799D01*
X-1181501Y+2407802D01*
X-1133449Y+2407802D01*
X-708129Y+1994196D02*
X-708129Y+1967254D01*
X-659773Y+1918898D01*
X-597808Y+1918898D01*
X-709751Y+1806955D01*
X-709751Y+1967949D01*
X-865301Y+1967949D01*
X-865301Y+2006601D01*
X-725551Y+2006601D01*
X-725551Y+2007801D01*
X-721734Y+2007801D01*
X-708129Y+1994196D01*
D12*
X+279249Y-3273800D02*
X+184000Y-3273800D01*
X+88751Y-3273800D02*
X+184000Y-3273800D01*
X+184000Y-3102351D02*
X+184000Y-3273800D01*
X-825649Y-1813300D02*
X-679600Y-1813300D01*
X-533551Y-1813300D02*
X-679600Y-1813300D01*
X-679600Y-1959349D02*
X-679600Y-1813300D01*
X-679600Y-1667251D02*
X-679600Y-1813300D01*
X+596751Y-1813300D02*
X+742800Y-1813300D01*
X+888849Y-1813300D02*
X+742800Y-1813300D01*
X+742800Y-1959349D02*
X+742800Y-1813300D01*
X+742800Y-1667251D02*
X+742800Y-1813300D01*
X+913951Y+2480000D02*
X+1060000Y+2480000D01*
X+1206049Y+2480000D02*
X+1060000Y+2480000D01*
X+1060000Y+2333951D02*
X+1060000Y+2480000D01*
X+1060000Y+2626049D02*
X+1060000Y+2480000D01*
X+1168951Y+1715000D02*
X+1315000Y+1715000D01*
X+1461049Y+1715000D02*
X+1315000Y+1715000D01*
X+1315000Y+1568951D02*
X+1315000Y+1715000D01*
X+1315000Y+1861049D02*
X+1315000Y+1715000D01*
X-1133449Y+2151300D02*
X-1039500Y+2151300D01*
X-945551Y+2151300D02*
X-1039500Y+2151300D01*
X-1133449Y+2231300D02*
X-1039500Y+2231300D01*
X-945551Y+2231300D02*
X-1039500Y+2231300D01*
X-1133449Y+2391300D02*
X-1039500Y+2391300D01*
X-194300Y+593271D02*
X-194300Y+1061900D01*
X-194300Y+1530529D02*
X-194300Y+1061900D01*
X+274329Y+1061900D02*
X-194300Y+1061900D01*
X-662929Y+1061900D02*
X-194300Y+1061900D01*
X-5000Y+2873951D02*
X-5000Y+3020000D01*
X-5000Y+3166049D02*
X-5000Y+3020000D01*
X-132000Y+2873951D02*
X-132000Y+3020000D01*
X-132000Y+3166049D02*
X-132000Y+3020000D01*
X-259000Y+2873951D02*
X-259000Y+3020000D01*
X-259000Y+3166049D02*
X-259000Y+3020000D01*
X-462199Y+3020000D02*
X-386000Y+3020000D01*
X-386000Y+2873951D02*
X-386000Y+3020000D01*
X-386000Y+3166049D02*
X-386000Y+3020000D01*
X-386000Y+2251649D02*
X-386000Y+2105600D01*
X-259000Y+2251649D02*
X-259000Y+2105600D01*
X-259000Y+1959551D02*
X-259000Y+2105600D01*
X-132000Y+2251649D02*
X-132000Y+2105600D01*
X-132000Y+1959551D02*
X-132000Y+2105600D01*
X-5000Y+2251649D02*
X-5000Y+2105600D01*
X-5000Y+1959551D02*
X-5000Y+2105600D01*
X+122000Y+2251649D02*
X+122000Y+2105600D01*
X+122000Y+1959551D02*
X+122000Y+2105600D01*
X-709751Y+1860000D02*
X-805000Y+1860000D01*
X-805000Y+1967949D02*
X-805000Y+1860000D01*
X-805000Y+1752051D02*
X-805000Y+1860000D01*
D13*
X+184000Y-3273800D03*
X-133500Y-3273800D03*
D14*
X+905000Y+1585000D03*
X+691640Y+1585000D03*
X+907900Y+1825000D03*
X+694540Y+1825000D03*
D15*
X-1035200Y+1044200D03*
X+628500Y+1044200D03*
D16*
X-679600Y-1813300D03*
X-679600Y-1406900D03*
X+742800Y-1813300D03*
X+742800Y-1406900D03*
X+1315000Y-570000D03*
X+1060000Y-60000D03*
X+1060000Y-2095000D03*
X+1060000Y-1840000D03*
X+1060000Y-2350000D03*
X+1060000Y+2480000D03*
X+1315000Y+1715000D03*
X+1314300Y-2346700D03*
D17*
X-819500Y+2071300D03*
X-819500Y+2151300D03*
X-819500Y+2231300D03*
X-819500Y+2311300D03*
X-819500Y+2391300D03*
X-819500Y+2471300D03*
X-1039500Y+2071300D03*
X-1039500Y+2151300D03*
X-1039500Y+2231300D03*
X-1039500Y+2311300D03*
X-1039500Y+2391300D03*
X-1039500Y+2471300D03*
D18*
X-929500Y+2481300D03*
D19*
X-194300Y+1061900D03*
D16*
X+1060000Y+200000D03*
X+1315000Y+200000D03*
D70*
X+503000Y+3020000D03*
X+376000Y+3020000D03*
X+249000Y+3020000D03*
X+122000Y+3020000D03*
X-5000Y+3020000D03*
X-132000Y+3020000D03*
X-259000Y+3020000D03*
X-386000Y+3020000D03*
X-386000Y+2105600D03*
X-259000Y+2105600D03*
X-132000Y+2105600D03*
X-5000Y+2105600D03*
X+122000Y+2105600D03*
X+249000Y+2105600D03*
X+376000Y+2105600D03*
X+503000Y+2105600D03*
D18*
X-930000Y+2050000D03*
D14*
X-805000Y+1860000D03*
X-1018360Y+1860000D03*
D71*
X-610000Y-3352045D02*
X-608010Y-3372492D01*
X-602285Y-3391400D01*
X-581094Y-3423139D01*
X-549356Y-3444330D01*
X-530447Y-3450055D01*
X-510000Y-3452045D01*
X-610000Y-3352045D02*
X-610000Y-2682045D01*
X-611990Y-2661598D01*
X-617715Y-2642690D01*
X-638906Y-2610951D01*
X-670644Y-2589760D01*
X-689553Y-2584035D01*
X-710000Y-2582045D01*
X-1190000Y-2582045D01*
X-1290000Y-2482045D02*
X-1288010Y-2502492D01*
X-1282285Y-2521400D01*
X-1261094Y-2553139D01*
X-1229356Y-2574330D01*
X-1210447Y-2580055D01*
X-1190000Y-2582045D01*
X-1290000Y-2482045D02*
X-1290000Y+2617964D01*
X-1288010Y+2638411D01*
X-1282285Y+2657319D01*
X-1261094Y+2689058D01*
X-1229356Y+2710249D01*
X-1210447Y+2715974D01*
X-1190000Y+2717964D01*
X-750000Y+2717964D01*
X-650000Y+2817964D02*
X-651990Y+2797517D01*
X-657715Y+2778609D01*
X-678906Y+2746870D01*
X-710644Y+2725679D01*
X-729553Y+2719954D01*
X-750000Y+2717964D01*
X-650000Y+2817964D02*
X-650000Y+3218300D01*
X-648010Y+3238747D01*
X-642285Y+3257655D01*
X-621094Y+3289394D01*
X-589356Y+3310585D01*
X-570447Y+3316310D01*
X-550000Y+3318300D01*
X+630000Y+3318300D01*
X+730000Y+3218300D02*
X+728010Y+3238747D01*
X+722285Y+3257655D01*
X+701094Y+3289394D01*
X+669356Y+3310585D01*
X+650447Y+3316310D01*
X+630000Y+3318300D01*
X+730000Y+3218300D02*
X+730000Y+2817964D01*
X+731990Y+2797517D01*
X+737715Y+2778609D01*
X+758906Y+2746870D01*
X+790644Y+2725679D01*
X+809553Y+2719954D01*
X+830000Y+2717964D01*
X+1440000Y+2717964D01*
X+1540000Y+2617964D02*
X+1538010Y+2638411D01*
X+1532285Y+2657319D01*
X+1511094Y+2689058D01*
X+1479356Y+2710249D01*
X+1460447Y+2715974D01*
X+1440000Y+2717964D01*
X+1540000Y+2617964D02*
X+1540000Y-2482045D01*
X+1538010Y-2502492D01*
X+1532285Y-2521400D01*
X+1511094Y-2553139D01*
X+1479356Y-2574330D01*
X+1460447Y-2580055D01*
X+1440000Y-2582045D01*
X+790000Y-2582045D01*
X+690000Y-2682045D02*
X+691990Y-2661598D01*
X+697715Y-2642690D01*
X+718906Y-2610951D01*
X+750644Y-2589760D01*
X+769553Y-2584035D01*
X+790000Y-2582045D01*
X+690000Y-2682045D02*
X+690000Y-3352045D01*
X+688010Y-3372492D01*
X+682285Y-3391400D01*
X+661094Y-3423139D01*
X+629356Y-3444330D01*
X+610447Y-3450055D01*
X+590000Y-3452045D01*
X+302500Y-3452045D01*
X-222500Y-3452045D02*
X-510000Y-3452045D01*
X+302500Y-3452045D02*
X-222500Y-3452045D01*
M02*
