G04 PROTEUS RS274X GERBER FILE*
%FSLAX45Y45*%
%MOMM*%
G01*
%ADD71C,0.203200*%
%ADD32C,0.127000*%
%ADD20C,0.063500*%
D71*
X-135548Y-2792743D02*
X-135548Y-2919743D01*
X-199048Y-2856243D02*
X-72048Y-2856243D01*
X-1203004Y+1552200D02*
X-1203004Y+1425200D01*
X-1266504Y+1488700D02*
X-1139504Y+1488700D01*
X-619148Y+2367227D02*
X-619148Y+2240227D01*
X-682648Y+2303727D02*
X-555648Y+2303727D01*
X-386522Y+1901675D02*
X-386522Y+1774675D01*
X-450022Y+1838175D02*
X-323022Y+1838175D01*
X-625000Y+2215421D02*
X-625000Y+2088421D01*
X-688500Y+2151921D02*
X-561500Y+2151921D01*
X-625580Y+2064947D02*
X-625580Y+1937947D01*
X-689080Y+2001447D02*
X-562080Y+2001447D01*
X+162114Y-546500D02*
X+162114Y-673500D01*
X+98614Y-610000D02*
X+225614Y-610000D01*
X+1270099Y-525099D02*
X+1359901Y-614901D01*
X+1270099Y-614901D02*
X+1359901Y-525099D01*
X+1015099Y-15099D02*
X+1104901Y-104901D01*
X+1015099Y-104901D02*
X+1104901Y-15099D01*
X+1015099Y-2050099D02*
X+1104901Y-2139901D01*
X+1015099Y-2139901D02*
X+1104901Y-2050099D01*
X+1015099Y-1795099D02*
X+1104901Y-1884901D01*
X+1015099Y-1884901D02*
X+1104901Y-1795099D01*
X+1015099Y-2305099D02*
X+1104901Y-2394901D01*
X+1015099Y-2394901D02*
X+1104901Y-2305099D01*
X+1015099Y+2524901D02*
X+1104901Y+2435099D01*
X+1015099Y+2435099D02*
X+1104901Y+2524901D01*
X+1270099Y+1759901D02*
X+1359901Y+1670099D01*
X+1270099Y+1670099D02*
X+1359901Y+1759901D01*
X+1269399Y-2301799D02*
X+1359201Y-2391601D01*
X+1269399Y-2391601D02*
X+1359201Y-2301799D01*
X+1015099Y+244901D02*
X+1104901Y+155099D01*
X+1015099Y+155099D02*
X+1104901Y+244901D01*
X+1270099Y+244901D02*
X+1359901Y+155099D01*
X+1270099Y+155099D02*
X+1359901Y+244901D01*
X-610000Y-3352045D02*
X-608010Y-3372492D01*
X-602285Y-3391400D01*
X-581094Y-3423139D01*
X-549356Y-3444330D01*
X-530447Y-3450055D01*
X-510000Y-3452045D01*
X-610000Y-3352045D02*
X-610000Y-2682045D01*
X-611990Y-2661598D01*
X-617715Y-2642690D01*
X-638906Y-2610951D01*
X-670644Y-2589760D01*
X-689553Y-2584035D01*
X-710000Y-2582045D01*
X-1190000Y-2582045D01*
X-1290000Y-2482045D02*
X-1288010Y-2502492D01*
X-1282285Y-2521400D01*
X-1261094Y-2553139D01*
X-1229356Y-2574330D01*
X-1210447Y-2580055D01*
X-1190000Y-2582045D01*
X-1290000Y-2482045D02*
X-1290000Y+2617964D01*
X-1288010Y+2638411D01*
X-1282285Y+2657319D01*
X-1261094Y+2689058D01*
X-1229356Y+2710249D01*
X-1210447Y+2715974D01*
X-1190000Y+2717964D01*
X-750000Y+2717964D01*
X-650000Y+2817964D02*
X-651990Y+2797517D01*
X-657715Y+2778609D01*
X-678906Y+2746870D01*
X-710644Y+2725679D01*
X-729553Y+2719954D01*
X-750000Y+2717964D01*
X-650000Y+2817964D02*
X-650000Y+3218300D01*
X-648010Y+3238747D01*
X-642285Y+3257655D01*
X-621094Y+3289394D01*
X-589356Y+3310585D01*
X-570447Y+3316310D01*
X-550000Y+3318300D01*
X+630000Y+3318300D01*
X+730000Y+3218300D02*
X+728010Y+3238747D01*
X+722285Y+3257655D01*
X+701094Y+3289394D01*
X+669356Y+3310585D01*
X+650447Y+3316310D01*
X+630000Y+3318300D01*
X+730000Y+3218300D02*
X+730000Y+2817964D01*
X+731990Y+2797517D01*
X+737715Y+2778609D01*
X+758906Y+2746870D01*
X+790644Y+2725679D01*
X+809553Y+2719954D01*
X+830000Y+2717964D01*
X+1440000Y+2717964D01*
X+1540000Y+2617964D02*
X+1538010Y+2638411D01*
X+1532285Y+2657319D01*
X+1511094Y+2689058D01*
X+1479356Y+2710249D01*
X+1460447Y+2715974D01*
X+1440000Y+2717964D01*
X+1540000Y+2617964D02*
X+1540000Y-2482045D01*
X+1538010Y-2502492D01*
X+1532285Y-2521400D01*
X+1511094Y-2553139D01*
X+1479356Y-2574330D01*
X+1460447Y-2580055D01*
X+1440000Y-2582045D01*
X+790000Y-2582045D01*
X+690000Y-2682045D02*
X+691990Y-2661598D01*
X+697715Y-2642690D01*
X+718906Y-2610951D01*
X+750644Y-2589760D01*
X+769553Y-2584035D01*
X+790000Y-2582045D01*
X+690000Y-2682045D02*
X+690000Y-3352045D01*
X+688010Y-3372492D01*
X+682285Y-3391400D01*
X+661094Y-3423139D01*
X+629356Y-3444330D01*
X+610447Y-3450055D01*
X+590000Y-3452045D01*
X+302500Y-3452045D01*
X-222500Y-3452045D02*
X-510000Y-3452045D01*
X+302500Y-3452045D02*
X-222500Y-3452045D01*
D32*
X-1309050Y-4487095D02*
X+1335090Y-4487095D01*
X+1335090Y-3725095D01*
X-1309050Y-3725095D01*
X-1309050Y-4487095D01*
D20*
X-841688Y-3725095D02*
X-841688Y-4487095D01*
X-28888Y-3725095D02*
X-28888Y-4487095D01*
X+804232Y-3725095D02*
X+804232Y-4487095D01*
X-1309050Y-3998145D02*
X+1335090Y-3998145D01*
X-1309050Y-4239445D02*
X+1335090Y-4239445D01*
D32*
X-1251900Y-3888925D02*
X-1236660Y-3904165D01*
X-1175700Y-3904165D01*
X-1160460Y-3888925D01*
X-1160460Y-3873685D01*
X-1175700Y-3858445D01*
X-1236660Y-3858445D01*
X-1251900Y-3843205D01*
X-1251900Y-3827965D01*
X-1236660Y-3812725D01*
X-1175700Y-3812725D01*
X-1160460Y-3827965D01*
X-1038540Y-3812725D02*
X-1129980Y-3904165D01*
X-1129980Y-3812725D02*
X-1084260Y-3858445D01*
X-1008060Y-3904165D02*
X-1008060Y-3812725D01*
X-962340Y-3858445D01*
X-916620Y-3812725D01*
X-916620Y-3904165D01*
X-784540Y-3888925D02*
X-769300Y-3904165D01*
X-708340Y-3904165D01*
X-693100Y-3888925D01*
X-693100Y-3873685D01*
X-708340Y-3858445D01*
X-769300Y-3858445D01*
X-784540Y-3843205D01*
X-784540Y-3827965D01*
X-769300Y-3812725D01*
X-708340Y-3812725D01*
X-693100Y-3827965D01*
X-647380Y-3812725D02*
X-586420Y-3812725D01*
X-616900Y-3812725D02*
X-616900Y-3904165D01*
X-647380Y-3904165D02*
X-586420Y-3904165D01*
X-540700Y-3812725D02*
X-449260Y-3812725D01*
X-540700Y-3904165D01*
X-449260Y-3904165D01*
X-327340Y-3904165D02*
X-418780Y-3904165D01*
X-418780Y-3812725D01*
X-327340Y-3812725D01*
X-418780Y-3858445D02*
X-357820Y-3858445D01*
X+28260Y-3904165D02*
X+28260Y-3812725D01*
X+104460Y-3812725D01*
X+119700Y-3827965D01*
X+119700Y-3843205D01*
X+104460Y-3858445D01*
X+28260Y-3858445D01*
X+150180Y-3812725D02*
X+150180Y-3904165D01*
X+241620Y-3904165D01*
X+272100Y-3904165D02*
X+272100Y-3843205D01*
X+302580Y-3812725D01*
X+333060Y-3812725D01*
X+363540Y-3843205D01*
X+363540Y-3904165D01*
X+272100Y-3873685D02*
X+363540Y-3873685D01*
X+394020Y-3812725D02*
X+485460Y-3812725D01*
X+439740Y-3812725D02*
X+439740Y-3904165D01*
X+607380Y-3904165D02*
X+515940Y-3904165D01*
X+515940Y-3812725D01*
X+607380Y-3812725D01*
X+515940Y-3858445D02*
X+576900Y-3858445D01*
X+637860Y-3904165D02*
X+637860Y-3812725D01*
X+698820Y-3812725D01*
X+729300Y-3843205D01*
X+729300Y-3873685D01*
X+698820Y-3904165D01*
X+637860Y-3904165D01*
X+861380Y-3843205D02*
X+891860Y-3812725D01*
X+922340Y-3812725D01*
X+952820Y-3843205D01*
X+952820Y-3873685D01*
X+922340Y-3904165D01*
X+891860Y-3904165D01*
X+861380Y-3873685D01*
X+861380Y-3843205D01*
X+922340Y-3873685D02*
X+952820Y-3904165D01*
X+983300Y-3812725D02*
X+1074740Y-3812725D01*
X+1029020Y-3812725D02*
X+1029020Y-3904165D01*
X+1196660Y-3812725D02*
X+1105220Y-3904165D01*
X+1105220Y-3812725D02*
X+1150940Y-3858445D01*
D71*
X-1062670Y-4048945D02*
X-1062670Y-4175945D01*
X-1126170Y-4112445D02*
X-999170Y-4112445D01*
D32*
X-765490Y-4137845D02*
X-765490Y-4087045D01*
X-752790Y-4074345D01*
X-701990Y-4074345D01*
X-689290Y-4087045D01*
X-689290Y-4137845D01*
X-701990Y-4150545D01*
X-752790Y-4150545D01*
X-765490Y-4137845D01*
X-765490Y-4150545D02*
X-689290Y-4074345D01*
X-625790Y-4137845D02*
X-613090Y-4137845D01*
X-613090Y-4150545D01*
X-625790Y-4150545D01*
X-625790Y-4137845D01*
X-549590Y-4087045D02*
X-536890Y-4074345D01*
X-498790Y-4074345D01*
X-486090Y-4087045D01*
X-486090Y-4099745D01*
X-498790Y-4112445D01*
X-486090Y-4125145D01*
X-486090Y-4137845D01*
X-498790Y-4150545D01*
X-536890Y-4150545D01*
X-549590Y-4137845D01*
X-524190Y-4112445D02*
X-498790Y-4112445D01*
X-435290Y-4112445D02*
X-447990Y-4099745D01*
X-447990Y-4087045D01*
X-435290Y-4074345D01*
X-397190Y-4074345D01*
X-384490Y-4087045D01*
X-384490Y-4099745D01*
X-397190Y-4112445D01*
X-435290Y-4112445D01*
X-447990Y-4125145D01*
X-447990Y-4137845D01*
X-435290Y-4150545D01*
X-397190Y-4150545D01*
X-384490Y-4137845D01*
X-384490Y-4125145D01*
X-397190Y-4112445D01*
X-333690Y-4099745D02*
X-308290Y-4074345D01*
X-308290Y-4150545D01*
X-257490Y-4150545D02*
X-257490Y-4099745D01*
X-257490Y-4112445D02*
X-244790Y-4099745D01*
X-219390Y-4125145D01*
X-193990Y-4099745D01*
X-181290Y-4112445D01*
X-181290Y-4150545D01*
X-155890Y-4150545D02*
X-155890Y-4099745D01*
X-155890Y-4112445D02*
X-143190Y-4099745D01*
X-117790Y-4125145D01*
X-92390Y-4099745D01*
X-79690Y-4112445D01*
X-79690Y-4150545D01*
X+136210Y-4074345D02*
X+60010Y-4150545D01*
X+60010Y-4074345D02*
X+98110Y-4112445D01*
X+237810Y-4150545D02*
X+161610Y-4150545D01*
X+161610Y-4074345D01*
X+237810Y-4074345D01*
X+161610Y-4112445D02*
X+212410Y-4112445D01*
X+263210Y-4137845D02*
X+275910Y-4150545D01*
X+326710Y-4150545D01*
X+339410Y-4137845D01*
X+339410Y-4125145D01*
X+326710Y-4112445D01*
X+275910Y-4112445D01*
X+263210Y-4099745D01*
X+263210Y-4087045D01*
X+275910Y-4074345D01*
X+326710Y-4074345D01*
X+339410Y-4087045D01*
X+918530Y-4074345D02*
X+982030Y-4074345D01*
X+982030Y-4087045D01*
X+918530Y-4150545D01*
D71*
X-1107571Y-4308844D02*
X-1017769Y-4398646D01*
X-1107571Y-4398646D02*
X-1017769Y-4308844D01*
D32*
X-740090Y-4341045D02*
X-714690Y-4315645D01*
X-714690Y-4391845D01*
X-625790Y-4379145D02*
X-613090Y-4379145D01*
X-613090Y-4391845D01*
X-625790Y-4391845D01*
X-625790Y-4379145D01*
X-562290Y-4379145D02*
X-562290Y-4328345D01*
X-549590Y-4315645D01*
X-498790Y-4315645D01*
X-486090Y-4328345D01*
X-486090Y-4379145D01*
X-498790Y-4391845D01*
X-549590Y-4391845D01*
X-562290Y-4379145D01*
X-562290Y-4391845D02*
X-486090Y-4315645D01*
X-435290Y-4341045D02*
X-409890Y-4315645D01*
X-409890Y-4391845D01*
X-282890Y-4328345D02*
X-295590Y-4315645D01*
X-333690Y-4315645D01*
X-346390Y-4328345D01*
X-346390Y-4379145D01*
X-333690Y-4391845D01*
X-295590Y-4391845D01*
X-282890Y-4379145D01*
X-282890Y-4366445D01*
X-295590Y-4353745D01*
X-346390Y-4353745D01*
X-257490Y-4391845D02*
X-257490Y-4341045D01*
X-257490Y-4353745D02*
X-244790Y-4341045D01*
X-219390Y-4366445D01*
X-193990Y-4341045D01*
X-181290Y-4353745D01*
X-181290Y-4391845D01*
X-155890Y-4391845D02*
X-155890Y-4341045D01*
X-155890Y-4353745D02*
X-143190Y-4341045D01*
X-117790Y-4366445D01*
X-92390Y-4341045D01*
X-79690Y-4353745D01*
X-79690Y-4391845D01*
X+136210Y-4315645D02*
X+60010Y-4391845D01*
X+60010Y-4315645D02*
X+98110Y-4353745D01*
X+237810Y-4391845D02*
X+161610Y-4391845D01*
X+161610Y-4315645D01*
X+237810Y-4315645D01*
X+161610Y-4353745D02*
X+212410Y-4353745D01*
X+263210Y-4379145D02*
X+275910Y-4391845D01*
X+326710Y-4391845D01*
X+339410Y-4379145D01*
X+339410Y-4366445D01*
X+326710Y-4353745D01*
X+275910Y-4353745D01*
X+263210Y-4341045D01*
X+263210Y-4328345D01*
X+275910Y-4315645D01*
X+326710Y-4315645D01*
X+339410Y-4328345D01*
X+931230Y-4341045D02*
X+956630Y-4315645D01*
X+956630Y-4391845D01*
X+1007430Y-4379145D02*
X+1007430Y-4328345D01*
X+1020130Y-4315645D01*
X+1070930Y-4315645D01*
X+1083630Y-4328345D01*
X+1083630Y-4379145D01*
X+1070930Y-4391845D01*
X+1020130Y-4391845D01*
X+1007430Y-4379145D01*
X+1007430Y-4391845D02*
X+1083630Y-4315645D01*
M02*
