G04 PROTEUS RS274X GERBER FILE*
%FSLAX45Y45*%
%MOMM*%
G01*
%ADD10C,0.381000*%
%ADD11C,0.762000*%
%ADD12C,0.254000*%
%ADD13R,1.016000X2.540000*%
%ADD16R,2.032000X2.032000*%
%ADD71C,0.203200*%
G36*
X+639791Y+3262479D02*
X+645773Y+3260668D01*
X+661719Y+3250021D01*
X+672368Y+3234072D01*
X+674180Y+3228089D01*
X+675390Y+3215652D01*
X+675390Y+2815316D01*
X+678159Y+2786860D01*
X+687797Y+2755028D01*
X+692298Y+2748286D01*
X+719530Y+2707498D01*
X+767060Y+2675763D01*
X+774820Y+2673413D01*
X+798897Y+2666123D01*
X+827352Y+2663354D01*
X+1437352Y+2663354D01*
X+1449791Y+2662143D01*
X+1455773Y+2660332D01*
X+1471719Y+2649685D01*
X+1482368Y+2633736D01*
X+1484180Y+2627753D01*
X+1485390Y+2615316D01*
X+1485390Y-2479397D01*
X+1484180Y-2491834D01*
X+1482368Y-2497817D01*
X+1471719Y-2513766D01*
X+1455773Y-2524413D01*
X+1449791Y-2526224D01*
X+1437341Y-2527436D01*
X+787341Y-2527436D01*
X+782569Y-2527900D01*
X+758897Y-2530204D01*
X+727060Y-2539844D01*
X+679530Y-2571579D01*
X+647797Y-2619109D01*
X+638159Y-2650941D01*
X+635390Y-2679397D01*
X+635390Y-3349397D01*
X+634180Y-3361834D01*
X+632368Y-3367817D01*
X+621719Y-3383766D01*
X+605773Y-3394413D01*
X+599791Y-3396224D01*
X+587352Y-3397435D01*
X+279249Y-3397435D01*
X+279249Y-3102351D01*
X+88751Y-3102351D01*
X+88751Y-3397435D01*
X-38251Y-3397435D01*
X-38251Y-3102351D01*
X-39255Y-3102351D01*
X+649597Y-2413499D01*
X+913951Y-2413499D01*
X+913951Y-2496049D01*
X+1206049Y-2496049D01*
X+1206049Y-2492749D01*
X+1460349Y-2492749D01*
X+1460349Y-2200651D01*
X+1206049Y-2200651D01*
X+1206049Y-2158499D01*
X+1220312Y-2158499D01*
X+1370566Y-2008245D01*
X+1370566Y-1696939D01*
X+1188338Y-1514711D01*
X+592534Y-1514711D01*
X+578775Y-1500952D01*
X+578775Y-932358D01*
X+244663Y-602099D01*
X+244663Y-575807D01*
X+196307Y-527451D01*
X+127921Y-527451D01*
X+79565Y-575807D01*
X+79565Y-644193D01*
X+127921Y-692549D01*
X+155109Y-692549D01*
X+451779Y-985429D01*
X+451779Y-1553556D01*
X+539932Y-1641709D01*
X+1135736Y-1641709D01*
X+1187978Y-1693951D01*
X+913951Y-1693951D01*
X+913951Y-2286501D01*
X+596994Y-2286501D01*
X+559797Y-2323699D01*
X-133500Y-3016996D01*
X-350610Y-2799886D01*
X-350610Y-2070516D01*
X-1139505Y-1281621D01*
X-1139505Y+356932D01*
X-919074Y+136501D01*
X+913951Y+136501D01*
X+913951Y+3499D01*
X+231732Y+3499D01*
X-199047Y-427280D01*
X-199047Y-2803000D01*
X-218097Y-2822050D01*
X-218097Y-2890436D01*
X-169741Y-2938792D01*
X-101355Y-2938792D01*
X-52999Y-2890436D01*
X-52999Y-2822050D01*
X-72049Y-2803000D01*
X-72049Y-479882D01*
X+284334Y-123499D01*
X+913951Y-123499D01*
X+913951Y-206049D01*
X+1206049Y-206049D01*
X+1206049Y+53951D01*
X+1461049Y+53951D01*
X+1461049Y+346049D01*
X+1378499Y+346049D01*
X+1378499Y+351141D01*
X+1252561Y+477079D01*
X+796099Y+477079D01*
X+669099Y+350079D01*
X-817539Y+350079D01*
X-940361Y+472901D01*
X-940361Y+1308310D01*
X-448035Y+1800636D01*
X-448035Y+2120797D01*
X-468656Y+2152418D01*
X-546439Y+2190102D01*
X-590807Y+2234470D01*
X-659193Y+2234470D01*
X-707549Y+2186114D01*
X-707549Y+2117728D01*
X-666795Y+2076974D01*
X-708129Y+2035640D01*
X-708129Y+1967254D01*
X-689079Y+1948204D01*
X-689079Y+1827627D01*
X-1139505Y+1377201D01*
X-1139505Y+1435457D01*
X-1120455Y+1454507D01*
X-1120455Y+1522893D01*
X-1168811Y+1571249D01*
X-1235390Y+1571249D01*
X-1235390Y+2615316D01*
X-1234180Y+2627753D01*
X-1232368Y+2633736D01*
X-1221719Y+2649685D01*
X-1205773Y+2660332D01*
X-1199791Y+2662143D01*
X-1187352Y+2663354D01*
X-747352Y+2663354D01*
X-718897Y+2666123D01*
X-687060Y+2675763D01*
X-639530Y+2707498D01*
X-607797Y+2755028D01*
X-598159Y+2786860D01*
X-595390Y+2815316D01*
X-595390Y+3215652D01*
X-594180Y+3228089D01*
X-592368Y+3234072D01*
X-581719Y+3250021D01*
X-565773Y+3260668D01*
X-559791Y+3262479D01*
X-547352Y+3263690D01*
X+627352Y+3263690D01*
X+639791Y+3262479D01*
G37*
%LPC*%
G36*
X+1168951Y-423951D02*
X+1461049Y-423951D01*
X+1461049Y-716049D01*
X+1168951Y-716049D01*
X+1168951Y-423951D01*
G37*
G36*
X+913951Y+2626049D02*
X+1206049Y+2626049D01*
X+1206049Y+2333951D01*
X+913951Y+2333951D01*
X+913951Y+2626049D01*
G37*
G36*
X+1168951Y+1861049D02*
X+1461049Y+1861049D01*
X+1461049Y+1568951D01*
X+1168951Y+1568951D01*
X+1168951Y+1861049D01*
G37*
G36*
X-657248Y+2287945D02*
X-657248Y+2319509D01*
X-634930Y+2341827D01*
X-603366Y+2341827D01*
X-581048Y+2319509D01*
X-581048Y+2287945D01*
X-603366Y+2265627D01*
X-634930Y+2265627D01*
X-657248Y+2287945D01*
G37*
G36*
X-424622Y+1822393D02*
X-424622Y+1853957D01*
X-402304Y+1876275D01*
X-370740Y+1876275D01*
X-348422Y+1853957D01*
X-348422Y+1822393D01*
X-370740Y+1800075D01*
X-402304Y+1800075D01*
X-424622Y+1822393D01*
G37*
%LPD*%
D10*
X+1060000Y-60000D02*
X+258033Y-60000D01*
X-135548Y-453581D01*
X-135548Y-2855163D01*
X-136628Y-2856243D01*
X-135548Y-2856243D01*
X-133500Y-3273800D02*
X-133500Y-3106796D01*
X-1203004Y+1488700D02*
X-1203004Y-1307922D01*
X-414109Y-2096817D01*
X-414109Y-2826187D01*
X-133500Y-3106796D01*
X-59752Y-3033048D01*
X+623296Y-2350000D01*
X+630000Y-2350000D01*
X+1060000Y-2350000D01*
X+1315000Y+200000D02*
X+1315000Y+324840D01*
X+1226260Y+413580D01*
X+822400Y+413580D01*
X+695400Y+286580D01*
X-843840Y+286580D01*
X-1003860Y+446600D01*
X-1003860Y+1334611D01*
X-511534Y+1826937D01*
X-511534Y+2101923D01*
X-625000Y+2151921D01*
X+1060000Y+200000D02*
X-892773Y+200000D01*
X-1101704Y+408931D01*
X-1101704Y+1325202D01*
X-625580Y+1801326D01*
X-625580Y+2001447D01*
X+1060000Y-2095000D02*
X+1194011Y-2095000D01*
X+1307067Y-1981944D01*
X+1307067Y-1723240D01*
X+1162037Y-1578210D01*
X+566233Y-1578210D01*
X+515277Y-1527254D01*
X+515277Y-958887D01*
X+162114Y-610000D01*
D11*
X-135548Y-2856243D03*
X-1203004Y+1488700D03*
X-619148Y+2303727D03*
X-386522Y+1838175D03*
X-625000Y+2151921D03*
X-625580Y+2001447D03*
X+162114Y-610000D03*
D10*
X+639791Y+3262479D02*
X+645773Y+3260668D01*
X+661719Y+3250021D01*
X+672368Y+3234072D01*
X+674180Y+3228089D01*
X+675390Y+3215652D01*
X+675390Y+2815316D01*
X+678159Y+2786860D01*
X+687797Y+2755028D01*
X+692298Y+2748286D01*
X+719530Y+2707498D01*
X+767060Y+2675763D01*
X+774820Y+2673413D01*
X+798897Y+2666123D01*
X+827352Y+2663354D01*
X+1437352Y+2663354D01*
X+1449791Y+2662143D01*
X+1455773Y+2660332D01*
X+1471719Y+2649685D01*
X+1482368Y+2633736D01*
X+1484180Y+2627753D01*
X+1485390Y+2615316D01*
X+1485390Y-2479397D01*
X+1484180Y-2491834D01*
X+1482368Y-2497817D01*
X+1471719Y-2513766D01*
X+1455773Y-2524413D01*
X+1449791Y-2526224D01*
X+1437341Y-2527436D01*
X+787341Y-2527436D01*
X+782569Y-2527900D01*
X+758897Y-2530204D01*
X+727060Y-2539844D01*
X+679530Y-2571579D01*
X+647797Y-2619109D01*
X+638159Y-2650941D01*
X+635390Y-2679397D01*
X+635390Y-3349397D01*
X+634180Y-3361834D01*
X+632368Y-3367817D01*
X+621719Y-3383766D01*
X+605773Y-3394413D01*
X+599791Y-3396224D01*
X+587352Y-3397435D01*
X+279249Y-3397435D01*
X+279249Y-3102351D01*
X+88751Y-3102351D01*
X+88751Y-3397435D01*
X-38251Y-3397435D01*
X-38251Y-3102351D01*
X-39255Y-3102351D01*
X+649597Y-2413499D01*
X+913951Y-2413499D01*
X+913951Y-2496049D01*
X+1206049Y-2496049D01*
X+1206049Y-2492749D01*
X+1460349Y-2492749D01*
X+1460349Y-2200651D01*
X+1206049Y-2200651D01*
X+1206049Y-2158499D01*
X+1220312Y-2158499D01*
X+1370566Y-2008245D01*
X+1370566Y-1696939D01*
X+1188338Y-1514711D01*
X+592534Y-1514711D01*
X+578775Y-1500952D01*
X+578775Y-932358D01*
X+244663Y-602099D01*
X+244663Y-575807D01*
X+196307Y-527451D01*
X+127921Y-527451D01*
X+79565Y-575807D01*
X+79565Y-644193D01*
X+127921Y-692549D01*
X+155109Y-692549D01*
X+451779Y-985429D01*
X+451779Y-1553556D01*
X+539932Y-1641709D01*
X+1135736Y-1641709D01*
X+1187978Y-1693951D01*
X+913951Y-1693951D01*
X+913951Y-2286501D01*
X+596994Y-2286501D01*
X+559797Y-2323699D01*
X-133500Y-3016996D01*
X-350610Y-2799886D01*
X-350610Y-2070516D01*
X-1139505Y-1281621D01*
X-1139505Y+356932D01*
X-919074Y+136501D01*
X+913951Y+136501D01*
X+913951Y+3499D01*
X+231732Y+3499D01*
X-199047Y-427280D01*
X-199047Y-2803000D01*
X-218097Y-2822050D01*
X-218097Y-2890436D01*
X-169741Y-2938792D01*
X-101355Y-2938792D01*
X-52999Y-2890436D01*
X-52999Y-2822050D01*
X-72049Y-2803000D01*
X-72049Y-479882D01*
X+284334Y-123499D01*
X+913951Y-123499D01*
X+913951Y-206049D01*
X+1206049Y-206049D01*
X+1206049Y+53951D01*
X+1461049Y+53951D01*
X+1461049Y+346049D01*
X+1378499Y+346049D01*
X+1378499Y+351141D01*
X+1252561Y+477079D01*
X+796099Y+477079D01*
X+669099Y+350079D01*
X-817539Y+350079D01*
X-940361Y+472901D01*
X-940361Y+1308310D01*
X-448035Y+1800636D01*
X-448035Y+2120797D01*
X-468656Y+2152418D01*
X-546439Y+2190102D01*
X-590807Y+2234470D01*
X-659193Y+2234470D01*
X-707549Y+2186114D01*
X-707549Y+2117728D01*
X-666795Y+2076974D01*
X-708129Y+2035640D01*
X-708129Y+1967254D01*
X-689079Y+1948204D01*
X-689079Y+1827627D01*
X-1139505Y+1377201D01*
X-1139505Y+1435457D01*
X-1120455Y+1454507D01*
X-1120455Y+1522893D01*
X-1168811Y+1571249D01*
X-1235390Y+1571249D01*
X-1235390Y+2615316D01*
X-1234180Y+2627753D01*
X-1232368Y+2633736D01*
X-1221719Y+2649685D01*
X-1205773Y+2660332D01*
X-1199791Y+2662143D01*
X-1187352Y+2663354D01*
X-747352Y+2663354D01*
X-718897Y+2666123D01*
X-687060Y+2675763D01*
X-639530Y+2707498D01*
X-607797Y+2755028D01*
X-598159Y+2786860D01*
X-595390Y+2815316D01*
X-595390Y+3215652D01*
X-594180Y+3228089D01*
X-592368Y+3234072D01*
X-581719Y+3250021D01*
X-565773Y+3260668D01*
X-559791Y+3262479D01*
X-547352Y+3263690D01*
X+627352Y+3263690D01*
X+639791Y+3262479D01*
X+1168951Y-423951D02*
X+1461049Y-423951D01*
X+1461049Y-716049D01*
X+1168951Y-716049D01*
X+1168951Y-423951D01*
X+913951Y+2626049D02*
X+1206049Y+2626049D01*
X+1206049Y+2333951D01*
X+913951Y+2333951D01*
X+913951Y+2626049D01*
X+1168951Y+1861049D02*
X+1461049Y+1861049D01*
X+1461049Y+1568951D01*
X+1168951Y+1568951D01*
X+1168951Y+1861049D01*
X-657248Y+2287945D02*
X-657248Y+2319509D01*
X-634930Y+2341827D01*
X-603366Y+2341827D01*
X-581048Y+2319509D01*
X-581048Y+2287945D01*
X-603366Y+2265627D01*
X-634930Y+2265627D01*
X-657248Y+2287945D01*
X-424622Y+1822393D02*
X-424622Y+1853957D01*
X-402304Y+1876275D01*
X-370740Y+1876275D01*
X-348422Y+1853957D01*
X-348422Y+1822393D01*
X-370740Y+1800075D01*
X-402304Y+1800075D01*
X-424622Y+1822393D01*
D12*
X+913951Y+2480000D02*
X+1060000Y+2480000D01*
X+1206049Y+2480000D02*
X+1060000Y+2480000D01*
X+1060000Y+2333951D02*
X+1060000Y+2480000D01*
X+1060000Y+2626049D02*
X+1060000Y+2480000D01*
X+1168951Y+1715000D02*
X+1315000Y+1715000D01*
X+1461049Y+1715000D02*
X+1315000Y+1715000D01*
X+1315000Y+1568951D02*
X+1315000Y+1715000D01*
X+1315000Y+1861049D02*
X+1315000Y+1715000D01*
D13*
X-133500Y-3273800D03*
X+184000Y-3273800D03*
D16*
X+1315000Y-570000D03*
X+1060000Y-60000D03*
X+1060000Y-2095000D03*
X+1060000Y-1840000D03*
X+1060000Y-2350000D03*
X+1060000Y+2480000D03*
X+1315000Y+1715000D03*
X+1314300Y-2346700D03*
X+1060000Y+200000D03*
X+1315000Y+200000D03*
D71*
X-610000Y-3352045D02*
X-608010Y-3372492D01*
X-602285Y-3391400D01*
X-581094Y-3423139D01*
X-549356Y-3444330D01*
X-530447Y-3450055D01*
X-510000Y-3452045D01*
X-610000Y-3352045D02*
X-610000Y-2682045D01*
X-611990Y-2661598D01*
X-617715Y-2642690D01*
X-638906Y-2610951D01*
X-670644Y-2589760D01*
X-689553Y-2584035D01*
X-710000Y-2582045D01*
X-1190000Y-2582045D01*
X-1290000Y-2482045D02*
X-1288010Y-2502492D01*
X-1282285Y-2521400D01*
X-1261094Y-2553139D01*
X-1229356Y-2574330D01*
X-1210447Y-2580055D01*
X-1190000Y-2582045D01*
X-1290000Y-2482045D02*
X-1290000Y+2617964D01*
X-1288010Y+2638411D01*
X-1282285Y+2657319D01*
X-1261094Y+2689058D01*
X-1229356Y+2710249D01*
X-1210447Y+2715974D01*
X-1190000Y+2717964D01*
X-750000Y+2717964D01*
X-650000Y+2817964D02*
X-651990Y+2797517D01*
X-657715Y+2778609D01*
X-678906Y+2746870D01*
X-710644Y+2725679D01*
X-729553Y+2719954D01*
X-750000Y+2717964D01*
X-650000Y+2817964D02*
X-650000Y+3218300D01*
X-648010Y+3238747D01*
X-642285Y+3257655D01*
X-621094Y+3289394D01*
X-589356Y+3310585D01*
X-570447Y+3316310D01*
X-550000Y+3318300D01*
X+630000Y+3318300D01*
X+730000Y+3218300D02*
X+728010Y+3238747D01*
X+722285Y+3257655D01*
X+701094Y+3289394D01*
X+669356Y+3310585D01*
X+650447Y+3316310D01*
X+630000Y+3318300D01*
X+730000Y+3218300D02*
X+730000Y+2817964D01*
X+731990Y+2797517D01*
X+737715Y+2778609D01*
X+758906Y+2746870D01*
X+790644Y+2725679D01*
X+809553Y+2719954D01*
X+830000Y+2717964D01*
X+1440000Y+2717964D01*
X+1540000Y+2617964D02*
X+1538010Y+2638411D01*
X+1532285Y+2657319D01*
X+1511094Y+2689058D01*
X+1479356Y+2710249D01*
X+1460447Y+2715974D01*
X+1440000Y+2717964D01*
X+1540000Y+2617964D02*
X+1540000Y-2482045D01*
X+1538010Y-2502492D01*
X+1532285Y-2521400D01*
X+1511094Y-2553139D01*
X+1479356Y-2574330D01*
X+1460447Y-2580055D01*
X+1440000Y-2582045D01*
X+790000Y-2582045D01*
X+690000Y-2682045D02*
X+691990Y-2661598D01*
X+697715Y-2642690D01*
X+718906Y-2610951D01*
X+750644Y-2589760D01*
X+769553Y-2584035D01*
X+790000Y-2582045D01*
X+690000Y-2682045D02*
X+690000Y-3352045D01*
X+688010Y-3372492D01*
X+682285Y-3391400D01*
X+661094Y-3423139D01*
X+629356Y-3444330D01*
X+610447Y-3450055D01*
X+590000Y-3452045D01*
X+302500Y-3452045D01*
X-222500Y-3452045D02*
X-510000Y-3452045D01*
X+302500Y-3452045D02*
X-222500Y-3452045D01*
M02*
