G04 PROTEUS RS274X GERBER FILE*
%FSLAX45Y45*%
%MOMM*%
G01*
%ADD23C,0.203200*%
%ADD24C,0.063500*%
%ADD25C,0.101600*%
%ADD26C,0.250000*%
%ADD27C,0.200000*%
D23*
X+291950Y-3182360D02*
X+323700Y-3151880D01*
X+323700Y-3243320D01*
D24*
X-1159460Y-1397147D02*
X-1159460Y-1341267D01*
X-1159460Y-1107587D02*
X-1159460Y-1046627D01*
X-1159460Y-884067D02*
X-1159460Y-863747D01*
X-1159460Y-635147D02*
X-1159460Y-624987D01*
X-1159460Y-477667D02*
X-1159460Y-421787D01*
X-1154380Y-1417467D02*
X-1154380Y-1320947D01*
X-1154380Y-1127907D02*
X-1154380Y-1026307D01*
X-1154380Y-884067D02*
X-1154380Y-858667D01*
X-1154380Y-645307D02*
X-1154380Y-619907D01*
X-1154380Y-497987D02*
X-1154380Y-401467D01*
X-1149300Y-1432707D02*
X-1149300Y-1305707D01*
X-1149300Y-1143147D02*
X-1149300Y-1011067D01*
X-1149300Y-884067D02*
X-1149300Y-858667D01*
X-1149300Y-645307D02*
X-1149300Y-619907D01*
X-1149300Y-513227D02*
X-1149300Y-391307D01*
X-1144220Y-1432707D02*
X-1144220Y-1300627D01*
X-1144220Y-1148227D02*
X-1144220Y-1005987D01*
X-1144220Y-884067D02*
X-1144220Y-858667D01*
X-1144220Y-645307D02*
X-1144220Y-619907D01*
X-1144220Y-518307D02*
X-1144220Y-386227D01*
X-1139140Y-1447947D02*
X-1139140Y-1402227D01*
X-1139140Y-1331107D02*
X-1139140Y-1290467D01*
X-1139140Y-1153307D02*
X-1139140Y-1107587D01*
X-1139140Y-1041547D02*
X-1139140Y-1000907D01*
X-1139140Y-884067D02*
X-1139140Y-858667D01*
X-1139140Y-645307D02*
X-1139140Y-619907D01*
X-1139140Y-528467D02*
X-1139140Y-487827D01*
X-1139140Y-416707D02*
X-1139140Y-370987D01*
X-1134060Y-1453027D02*
X-1134060Y-1417467D01*
X-1134060Y-1320947D02*
X-1134060Y-1280307D01*
X-1134060Y-1158387D02*
X-1134060Y-1122827D01*
X-1134060Y-1031387D02*
X-1134060Y-995827D01*
X-1134060Y-884067D02*
X-1134060Y-858667D01*
X-1134060Y-645307D02*
X-1134060Y-619907D01*
X-1134060Y-538627D02*
X-1134060Y-497987D01*
X-1134060Y-401467D02*
X-1134060Y-365907D01*
X-1128980Y-1453027D02*
X-1128980Y-1422547D01*
X-1128980Y-1315867D02*
X-1128980Y-1275227D01*
X-1128980Y-1163467D02*
X-1128980Y-1127907D01*
X-1128980Y-1026307D02*
X-1128980Y-985667D01*
X-1128980Y-884067D02*
X-1128980Y-858667D01*
X-1128980Y-645307D02*
X-1128980Y-619907D01*
X-1128980Y-543707D02*
X-1128980Y-503067D01*
X-1128980Y-396387D02*
X-1128980Y-360827D01*
X-1123900Y-1453027D02*
X-1123900Y-1437787D01*
X-1123900Y-1310787D02*
X-1123900Y-1270147D01*
X-1123900Y-1173627D02*
X-1123900Y-1138067D01*
X-1123900Y-1011067D02*
X-1123900Y-980587D01*
X-1123900Y-884067D02*
X-1123900Y-858667D01*
X-1123900Y-645307D02*
X-1123900Y-619907D01*
X-1123900Y-548787D02*
X-1123900Y-513227D01*
X-1123900Y-391307D02*
X-1123900Y-350667D01*
X-1118820Y-1300627D02*
X-1118820Y-1270147D01*
X-1118820Y-1178707D02*
X-1118820Y-1148227D01*
X-1118820Y-1005987D02*
X-1118820Y-975507D01*
X-1118820Y-884067D02*
X-1118820Y-858667D01*
X-1118820Y-645307D02*
X-1118820Y-619907D01*
X-1118820Y-558947D02*
X-1118820Y-523387D01*
X-1118820Y-376067D02*
X-1118820Y-345587D01*
X-1113740Y-1295547D02*
X-1113740Y-1265067D01*
X-1113740Y-1183787D02*
X-1113740Y-1153307D01*
X-1113740Y-1000907D02*
X-1113740Y-970427D01*
X-1113740Y-884067D02*
X-1113740Y-858667D01*
X-1113740Y-645307D02*
X-1113740Y-619907D01*
X-1113740Y-558947D02*
X-1113740Y-523387D01*
X-1113740Y-376067D02*
X-1113740Y-345587D01*
X-1108660Y-1290467D02*
X-1108660Y-1259987D01*
X-1108660Y-1183787D02*
X-1108660Y-1158387D01*
X-1108660Y-990747D02*
X-1108660Y-965347D01*
X-1108660Y-884067D02*
X-1108660Y-858667D01*
X-1108660Y-645307D02*
X-1108660Y-619907D01*
X-1108660Y-558947D02*
X-1108660Y-533547D01*
X-1108660Y-370987D02*
X-1108660Y-340507D01*
X-1103580Y-1280307D02*
X-1103580Y-1254907D01*
X-1103580Y-1188867D02*
X-1103580Y-1158387D01*
X-1103580Y-985667D02*
X-1103580Y-965347D01*
X-1103580Y-884067D02*
X-1103580Y-858667D01*
X-1103580Y-645307D02*
X-1103580Y-619907D01*
X-1103580Y-564027D02*
X-1103580Y-538627D01*
X-1103580Y-365907D02*
X-1103580Y-335427D01*
X-1098500Y-1280307D02*
X-1098500Y-1254907D01*
X-1098500Y-1193947D02*
X-1098500Y-1163467D01*
X-1098500Y-985667D02*
X-1098500Y-960267D01*
X-1098500Y-884067D02*
X-1098500Y-858667D01*
X-1098500Y-645307D02*
X-1098500Y-619907D01*
X-1098500Y-564027D02*
X-1098500Y-543707D01*
X-1098500Y-360827D02*
X-1098500Y-335427D01*
X-1093420Y-1280307D02*
X-1093420Y-1254907D01*
X-1093420Y-1193947D02*
X-1093420Y-1168547D01*
X-1093420Y-980587D02*
X-1093420Y-960267D01*
X-1093420Y-884067D02*
X-1093420Y-858667D01*
X-1093420Y-645307D02*
X-1093420Y-619907D01*
X-1093420Y-574187D02*
X-1093420Y-548787D01*
X-1093420Y-355747D02*
X-1093420Y-330347D01*
X-1088340Y-1275227D02*
X-1088340Y-1249827D01*
X-1088340Y-1193947D02*
X-1088340Y-1168547D01*
X-1088340Y-975507D02*
X-1088340Y-960267D01*
X-1088340Y-884067D02*
X-1088340Y-858667D01*
X-1088340Y-645307D02*
X-1088340Y-619907D01*
X-1088340Y-574187D02*
X-1088340Y-548787D01*
X-1088340Y-355747D02*
X-1088340Y-330347D01*
X-1083260Y-1275227D02*
X-1083260Y-1249827D01*
X-1083260Y-1199027D02*
X-1083260Y-1173627D01*
X-1083260Y-975507D02*
X-1083260Y-950107D01*
X-1083260Y-884067D02*
X-1083260Y-858667D01*
X-1083260Y-645307D02*
X-1083260Y-619907D01*
X-1083260Y-574187D02*
X-1083260Y-548787D01*
X-1083260Y-355747D02*
X-1083260Y-330347D01*
X-1078180Y-1275227D02*
X-1078180Y-1249827D01*
X-1078180Y-1199027D02*
X-1078180Y-1173627D01*
X-1078180Y-975507D02*
X-1078180Y-950107D01*
X-1078180Y-884067D02*
X-1078180Y-858667D01*
X-1078180Y-645307D02*
X-1078180Y-619907D01*
X-1078180Y-574187D02*
X-1078180Y-553867D01*
X-1078180Y-350667D02*
X-1078180Y-330347D01*
X-1073100Y-1275227D02*
X-1073100Y-1249827D01*
X-1073100Y-1199027D02*
X-1073100Y-1173627D01*
X-1073100Y-975507D02*
X-1073100Y-950107D01*
X-1073100Y-884067D02*
X-1073100Y-858667D01*
X-1073100Y-645307D02*
X-1073100Y-619907D01*
X-1073100Y-574187D02*
X-1073100Y-553867D01*
X-1073100Y-350667D02*
X-1073100Y-330347D01*
X-1068020Y-1275227D02*
X-1068020Y-1249827D01*
X-1068020Y-1199027D02*
X-1068020Y-1173627D01*
X-1068020Y-975507D02*
X-1068020Y-950107D01*
X-1068020Y-884067D02*
X-1068020Y-858667D01*
X-1068020Y-645307D02*
X-1068020Y-619907D01*
X-1068020Y-579267D02*
X-1068020Y-553867D01*
X-1068020Y-350667D02*
X-1068020Y-325267D01*
X-1062940Y-1488587D02*
X-1062940Y-1249827D01*
X-1062940Y-1199027D02*
X-1062940Y-1173627D01*
X-1062940Y-975507D02*
X-1062940Y-950107D01*
X-1062940Y-884067D02*
X-1062940Y-858667D01*
X-1062940Y-645307D02*
X-1062940Y-619907D01*
X-1062940Y-579267D02*
X-1062940Y-553867D01*
X-1062940Y-350667D02*
X-1062940Y-325267D01*
X-1057860Y-1498747D02*
X-1057860Y-1249827D01*
X-1057860Y-1199027D02*
X-1057860Y-1173627D01*
X-1057860Y-975507D02*
X-1057860Y-950107D01*
X-1057860Y-884067D02*
X-1057860Y-858667D01*
X-1057860Y-645307D02*
X-1057860Y-619907D01*
X-1057860Y-579267D02*
X-1057860Y-553867D01*
X-1057860Y-350667D02*
X-1057860Y-325267D01*
X-1052780Y-1498747D02*
X-1052780Y-1249827D01*
X-1052780Y-1199027D02*
X-1052780Y-1173627D01*
X-1052780Y-975507D02*
X-1052780Y-950107D01*
X-1052780Y-884067D02*
X-1052780Y-858667D01*
X-1052780Y-645307D02*
X-1052780Y-619907D01*
X-1052780Y-579267D02*
X-1052780Y-553867D01*
X-1052780Y-350667D02*
X-1052780Y-325267D01*
X-1047700Y-1498747D02*
X-1047700Y-1463187D01*
X-1047700Y-1275227D02*
X-1047700Y-1249827D01*
X-1047700Y-1199027D02*
X-1047700Y-1173627D01*
X-1047700Y-975507D02*
X-1047700Y-950107D01*
X-1047700Y-884067D02*
X-1047700Y-858667D01*
X-1047700Y-645307D02*
X-1047700Y-619907D01*
X-1047700Y-579267D02*
X-1047700Y-553867D01*
X-1047700Y-350667D02*
X-1047700Y-325267D01*
X-1042620Y-1498747D02*
X-1042620Y-1468267D01*
X-1042620Y-1265067D02*
X-1042620Y-1249827D01*
X-1042620Y-1199027D02*
X-1042620Y-1173627D01*
X-1042620Y-975507D02*
X-1042620Y-950107D01*
X-1042620Y-884067D02*
X-1042620Y-858667D01*
X-1042620Y-645307D02*
X-1042620Y-619907D01*
X-1042620Y-579267D02*
X-1042620Y-553867D01*
X-1042620Y-350667D02*
X-1042620Y-330347D01*
X-1037540Y-1493667D02*
X-1037540Y-1473347D01*
X-1037540Y-1265067D02*
X-1037540Y-1249827D01*
X-1037540Y-1199027D02*
X-1037540Y-1173627D01*
X-1037540Y-975507D02*
X-1037540Y-950107D01*
X-1037540Y-884067D02*
X-1037540Y-858667D01*
X-1037540Y-645307D02*
X-1037540Y-619907D01*
X-1037540Y-579267D02*
X-1037540Y-553867D01*
X-1037540Y-350667D02*
X-1037540Y-330347D01*
X-1032460Y-1488587D02*
X-1032460Y-1468267D01*
X-1032460Y-1275227D02*
X-1032460Y-1249827D01*
X-1032460Y-1199027D02*
X-1032460Y-1173627D01*
X-1032460Y-975507D02*
X-1032460Y-950107D01*
X-1032460Y-884067D02*
X-1032460Y-858667D01*
X-1032460Y-645307D02*
X-1032460Y-619907D01*
X-1032460Y-579267D02*
X-1032460Y-548787D01*
X-1032460Y-355747D02*
X-1032460Y-330347D01*
X-1027380Y-1488587D02*
X-1027380Y-1463187D01*
X-1027380Y-1275227D02*
X-1027380Y-1249827D01*
X-1027380Y-1199027D02*
X-1027380Y-1173627D01*
X-1027380Y-975507D02*
X-1027380Y-950107D01*
X-1027380Y-884067D02*
X-1027380Y-858667D01*
X-1027380Y-650387D02*
X-1027380Y-619907D01*
X-1027380Y-579267D02*
X-1027380Y-548787D01*
X-1027380Y-355747D02*
X-1027380Y-330347D01*
X-1022300Y-1488587D02*
X-1022300Y-1463187D01*
X-1022300Y-1280307D02*
X-1022300Y-1249827D01*
X-1022300Y-1199027D02*
X-1022300Y-1168547D01*
X-1022300Y-985667D02*
X-1022300Y-960267D01*
X-1022300Y-884067D02*
X-1022300Y-858667D01*
X-1022300Y-650387D02*
X-1022300Y-619907D01*
X-1022300Y-579267D02*
X-1022300Y-548787D01*
X-1022300Y-355747D02*
X-1022300Y-330347D01*
X-1017220Y-1488587D02*
X-1017220Y-1458107D01*
X-1017220Y-1280307D02*
X-1017220Y-1254907D01*
X-1017220Y-1199027D02*
X-1017220Y-1168547D01*
X-1017220Y-985667D02*
X-1017220Y-960267D01*
X-1017220Y-884067D02*
X-1017220Y-858667D01*
X-1017220Y-655467D02*
X-1017220Y-619907D01*
X-1017220Y-579267D02*
X-1017220Y-538627D01*
X-1017220Y-360827D02*
X-1017220Y-335427D01*
X-1012140Y-1483507D02*
X-1012140Y-1458107D01*
X-1012140Y-1285387D02*
X-1012140Y-1254907D01*
X-1012140Y-1199027D02*
X-1012140Y-1163467D01*
X-1012140Y-985667D02*
X-1012140Y-965347D01*
X-1012140Y-884067D02*
X-1012140Y-858667D01*
X-1012140Y-660547D02*
X-1012140Y-619907D01*
X-1012140Y-579267D02*
X-1012140Y-538627D01*
X-1012140Y-365907D02*
X-1012140Y-335427D01*
X-1007060Y-1478427D02*
X-1007060Y-1453027D01*
X-1007060Y-1285387D02*
X-1007060Y-1259987D01*
X-1007060Y-1199027D02*
X-1007060Y-1158387D01*
X-1007060Y-995827D02*
X-1007060Y-965347D01*
X-1007060Y-884067D02*
X-1007060Y-858667D01*
X-1007060Y-660547D02*
X-1007060Y-619907D01*
X-1007060Y-579267D02*
X-1007060Y-538627D01*
X-1007060Y-370987D02*
X-1007060Y-345587D01*
X-1001980Y-1473347D02*
X-1001980Y-1447947D01*
X-1001980Y-1290467D02*
X-1001980Y-1259987D01*
X-1001980Y-1199027D02*
X-1001980Y-1153307D01*
X-1001980Y-1000907D02*
X-1001980Y-970427D01*
X-1001980Y-884067D02*
X-1001980Y-858667D01*
X-1001980Y-665627D02*
X-1001980Y-619907D01*
X-1001980Y-579267D02*
X-1001980Y-533547D01*
X-1001980Y-370987D02*
X-1001980Y-345587D01*
X-996900Y-1473347D02*
X-996900Y-1442867D01*
X-996900Y-1295547D02*
X-996900Y-1265067D01*
X-996900Y-1199027D02*
X-996900Y-1148227D01*
X-996900Y-1005987D02*
X-996900Y-975507D01*
X-996900Y-884067D02*
X-996900Y-858667D01*
X-996900Y-675787D02*
X-996900Y-619907D01*
X-996900Y-579267D02*
X-996900Y-523387D01*
X-996900Y-376067D02*
X-996900Y-345587D01*
X-991820Y-1468267D02*
X-991820Y-1432707D01*
X-991820Y-1310787D02*
X-991820Y-1270147D01*
X-991820Y-1199027D02*
X-991820Y-1138067D01*
X-991820Y-1011067D02*
X-991820Y-980587D01*
X-991820Y-884067D02*
X-991820Y-858667D01*
X-991820Y-680867D02*
X-991820Y-619907D01*
X-991820Y-579267D02*
X-991820Y-518307D01*
X-991820Y-386227D02*
X-991820Y-350667D01*
X-986740Y-1463187D02*
X-986740Y-1422547D01*
X-986740Y-1315867D02*
X-986740Y-1275227D01*
X-986740Y-1199027D02*
X-986740Y-1132987D01*
X-986740Y-1021227D02*
X-986740Y-980587D01*
X-986740Y-884067D02*
X-986740Y-858667D01*
X-986740Y-685947D02*
X-986740Y-655467D01*
X-986740Y-645307D02*
X-986740Y-619907D01*
X-986740Y-579267D02*
X-986740Y-553867D01*
X-986740Y-543707D02*
X-986740Y-503067D01*
X-986740Y-396387D02*
X-986740Y-360827D01*
X-981660Y-1453027D02*
X-981660Y-1417467D01*
X-981660Y-1331107D02*
X-981660Y-1285387D01*
X-981660Y-1199027D02*
X-981660Y-1173627D01*
X-981660Y-1163467D02*
X-981660Y-1117747D01*
X-981660Y-1031387D02*
X-981660Y-985667D01*
X-981660Y-884067D02*
X-981660Y-858667D01*
X-981660Y-792627D02*
X-981660Y-787547D01*
X-981660Y-701187D02*
X-981660Y-660547D01*
X-981660Y-645307D02*
X-981660Y-619907D01*
X-981660Y-579267D02*
X-981660Y-553867D01*
X-981660Y-538627D02*
X-981660Y-492907D01*
X-981660Y-411627D02*
X-981660Y-365907D01*
X-976580Y-1447947D02*
X-976580Y-1412387D01*
X-976580Y-1336187D02*
X-976580Y-1290467D01*
X-976580Y-1199027D02*
X-976580Y-1173627D01*
X-976580Y-1153307D02*
X-976580Y-1112667D01*
X-976580Y-1036467D02*
X-976580Y-995827D01*
X-976580Y-884067D02*
X-976580Y-858667D01*
X-976580Y-797707D02*
X-976580Y-782467D01*
X-976580Y-706267D02*
X-976580Y-670707D01*
X-976580Y-645307D02*
X-976580Y-619907D01*
X-976580Y-579267D02*
X-976580Y-553867D01*
X-976580Y-528467D02*
X-976580Y-487827D01*
X-976580Y-416707D02*
X-976580Y-370987D01*
X-971500Y-1442867D02*
X-971500Y-1376827D01*
X-971500Y-1361587D02*
X-971500Y-1305707D01*
X-971500Y-1199027D02*
X-971500Y-1173627D01*
X-971500Y-1143147D02*
X-971500Y-1087267D01*
X-971500Y-1066947D02*
X-971500Y-1005987D01*
X-971500Y-884067D02*
X-971500Y-858667D01*
X-971500Y-802787D02*
X-971500Y-757067D01*
X-971500Y-741827D02*
X-971500Y-675787D01*
X-971500Y-645307D02*
X-971500Y-619907D01*
X-971500Y-579267D02*
X-971500Y-553867D01*
X-971500Y-523387D02*
X-971500Y-457347D01*
X-971500Y-442107D02*
X-971500Y-381147D01*
X-966420Y-1427627D02*
X-966420Y-1310787D01*
X-966420Y-1199027D02*
X-966420Y-1173627D01*
X-966420Y-1132987D02*
X-966420Y-1021227D01*
X-966420Y-884067D02*
X-966420Y-858667D01*
X-966420Y-797707D02*
X-966420Y-685947D01*
X-966420Y-645307D02*
X-966420Y-619907D01*
X-966420Y-579267D02*
X-966420Y-553867D01*
X-966420Y-513227D02*
X-966420Y-391307D01*
X-961340Y-1422547D02*
X-961340Y-1315867D01*
X-961340Y-1199027D02*
X-961340Y-1173627D01*
X-961340Y-1127907D02*
X-961340Y-1026307D01*
X-961340Y-884067D02*
X-961340Y-858667D01*
X-961340Y-792627D02*
X-961340Y-691027D01*
X-961340Y-645307D02*
X-961340Y-619907D01*
X-961340Y-579267D02*
X-961340Y-553867D01*
X-961340Y-508147D02*
X-961340Y-396387D01*
X-956260Y-1407307D02*
X-956260Y-1336187D01*
X-956260Y-1199027D02*
X-956260Y-1173627D01*
X-956260Y-1112667D02*
X-956260Y-1036467D01*
X-956260Y-884067D02*
X-956260Y-863747D01*
X-956260Y-782467D02*
X-956260Y-711347D01*
X-956260Y-635147D02*
X-956260Y-619907D01*
X-956260Y-579267D02*
X-956260Y-553867D01*
X-956260Y-487827D02*
X-956260Y-416707D01*
X-951180Y-1199027D02*
X-951180Y-1173627D01*
X-951180Y-579267D02*
X-951180Y-553867D01*
X-946100Y-1199027D02*
X-946100Y-1173627D01*
X-946100Y-579267D02*
X-946100Y-553867D01*
X-941020Y-1199027D02*
X-941020Y-1173627D01*
X-941020Y-579267D02*
X-941020Y-553867D01*
X-935940Y-1199027D02*
X-935940Y-1173627D01*
X-935940Y-579267D02*
X-935940Y-553867D01*
X-930860Y-1199027D02*
X-930860Y-1173627D01*
X-930860Y-579267D02*
X-930860Y-553867D01*
X-925780Y-1199027D02*
X-925780Y-1173627D01*
X-925780Y-579267D02*
X-925780Y-553867D01*
X-920700Y-1199027D02*
X-920700Y-1173627D01*
X-920700Y-579267D02*
X-920700Y-553867D01*
X-915620Y-1199027D02*
X-915620Y-1173627D01*
X-915620Y-579267D02*
X-915620Y-553867D01*
X-910540Y-1199027D02*
X-910540Y-1173627D01*
X-910540Y-579267D02*
X-910540Y-553867D01*
X-905460Y-1199027D02*
X-905460Y-1173627D01*
X-905460Y-884067D02*
X-905460Y-858667D01*
X-905460Y-579267D02*
X-905460Y-553867D01*
X-900380Y-1199027D02*
X-900380Y-1173627D01*
X-900380Y-889147D02*
X-900380Y-858667D01*
X-900380Y-579267D02*
X-900380Y-553867D01*
X-895300Y-1199027D02*
X-895300Y-1173627D01*
X-895300Y-889147D02*
X-895300Y-858667D01*
X-895300Y-579267D02*
X-895300Y-553867D01*
X-890220Y-1199027D02*
X-890220Y-1173627D01*
X-890220Y-884067D02*
X-890220Y-858667D01*
X-890220Y-579267D02*
X-890220Y-553867D01*
X-885140Y-1199027D02*
X-885140Y-1173627D01*
X-885140Y-579267D02*
X-885140Y-553867D01*
X-880060Y-1199027D02*
X-880060Y-1173627D01*
X-880060Y-579267D02*
X-880060Y-553867D01*
X-874980Y-1199027D02*
X-874980Y-1173627D01*
X-874980Y-579267D02*
X-874980Y-553867D01*
X-869900Y-1199027D02*
X-869900Y-1178707D01*
X-869900Y-574187D02*
X-869900Y-553867D01*
X-864820Y-1199027D02*
X-864820Y-1183787D01*
X-859740Y-1193947D02*
X-859740Y-1188867D01*
D23*
X-34479Y-2988468D02*
X-34479Y-2897028D01*
X+16321Y-2897028D01*
X+41721Y-2927508D01*
X+41721Y-2957988D01*
X+16321Y-2988468D01*
X-34479Y-2988468D01*
X+92521Y-2927508D02*
X+117921Y-2897028D01*
X+117921Y-2988468D01*
X+1188000Y-697000D02*
X+1442000Y-697000D01*
X+1442000Y-443000D01*
X+1188000Y-443000D01*
X+1188000Y-697000D01*
X+933000Y-187000D02*
X+1187000Y-187000D01*
X+1187000Y+67000D01*
X+933000Y+67000D01*
X+933000Y-187000D01*
X+933000Y-2222000D02*
X+1187000Y-2222000D01*
X+1187000Y-1968000D01*
X+933000Y-1968000D01*
X+933000Y-2222000D01*
X+933000Y-1967000D02*
X+1187000Y-1967000D01*
X+1187000Y-1713000D01*
X+933000Y-1713000D01*
X+933000Y-1967000D01*
X+933000Y-2477000D02*
X+1187000Y-2477000D01*
X+1187000Y-2223000D01*
X+933000Y-2223000D01*
X+933000Y-2477000D01*
X+933000Y+2353000D02*
X+1187000Y+2353000D01*
X+1187000Y+2607000D01*
X+933000Y+2607000D01*
X+933000Y+2353000D01*
X+1188000Y+1588000D02*
X+1442000Y+1588000D01*
X+1442000Y+1842000D01*
X+1188000Y+1842000D01*
X+1188000Y+1588000D01*
X-610000Y-3352045D02*
X-608010Y-3372492D01*
X-602285Y-3391400D01*
X-581094Y-3423139D01*
X-549356Y-3444330D01*
X-530447Y-3450055D01*
X-510000Y-3452045D01*
X-610000Y-3352045D02*
X-610000Y-2682045D01*
X-611990Y-2661598D01*
X-617715Y-2642690D01*
X-638906Y-2610951D01*
X-670644Y-2589760D01*
X-689553Y-2584035D01*
X-710000Y-2582045D01*
X-1190000Y-2582045D01*
X-1290000Y-2482045D02*
X-1288010Y-2502492D01*
X-1282285Y-2521400D01*
X-1261094Y-2553139D01*
X-1229356Y-2574330D01*
X-1210447Y-2580055D01*
X-1190000Y-2582045D01*
X-1290000Y-2482045D02*
X-1290000Y+2617964D01*
X-1288010Y+2638411D01*
X-1282285Y+2657319D01*
X-1261094Y+2689058D01*
X-1229356Y+2710249D01*
X-1210447Y+2715974D01*
X-1190000Y+2717964D01*
X-750000Y+2717964D01*
X-650000Y+2817964D02*
X-651990Y+2797517D01*
X-657715Y+2778609D01*
X-678906Y+2746870D01*
X-710644Y+2725679D01*
X-729553Y+2719954D01*
X-750000Y+2717964D01*
X-650000Y+2817964D02*
X-650000Y+3218300D01*
X-648010Y+3238747D01*
X-642285Y+3257655D01*
X-621094Y+3289394D01*
X-589356Y+3310585D01*
X-570447Y+3316310D01*
X-550000Y+3318300D01*
X+630000Y+3318300D01*
X+730000Y+3218300D02*
X+728010Y+3238747D01*
X+722285Y+3257655D01*
X+701094Y+3289394D01*
X+669356Y+3310585D01*
X+650447Y+3316310D01*
X+630000Y+3318300D01*
X+730000Y+3218300D02*
X+730000Y+2817964D01*
X+731990Y+2797517D01*
X+737715Y+2778609D01*
X+758906Y+2746870D01*
X+790644Y+2725679D01*
X+809553Y+2719954D01*
X+830000Y+2717964D01*
X+1440000Y+2717964D01*
X+1540000Y+2617964D02*
X+1538010Y+2638411D01*
X+1532285Y+2657319D01*
X+1511094Y+2689058D01*
X+1479356Y+2710249D01*
X+1460447Y+2715974D01*
X+1440000Y+2717964D01*
X+1540000Y+2617964D02*
X+1540000Y-2482045D01*
X+1538010Y-2502492D01*
X+1532285Y-2521400D01*
X+1511094Y-2553139D01*
X+1479356Y-2574330D01*
X+1460447Y-2580055D01*
X+1440000Y-2582045D01*
X+790000Y-2582045D01*
X+690000Y-2682045D02*
X+691990Y-2661598D01*
X+697715Y-2642690D01*
X+718906Y-2610951D01*
X+750644Y-2589760D01*
X+769553Y-2584035D01*
X+790000Y-2582045D01*
X+690000Y-2682045D02*
X+690000Y-3352045D01*
X+688010Y-3372492D01*
X+682285Y-3391400D01*
X+661094Y-3423139D01*
X+629356Y-3444330D01*
X+610447Y-3450055D01*
X+590000Y-3452045D01*
X+302500Y-3452045D01*
X-222500Y-3452045D02*
X-510000Y-3452045D01*
X+302500Y-3452045D02*
X-222500Y-3452045D01*
X+933000Y+73000D02*
X+1187000Y+73000D01*
X+1187000Y+327000D01*
X+933000Y+327000D01*
X+933000Y+73000D01*
X+1188000Y+73000D02*
X+1442000Y+73000D01*
X+1442000Y+327000D01*
X+1188000Y+327000D01*
X+1188000Y+73000D01*
D25*
X+528080Y-526480D02*
X+528080Y-276480D01*
X+525600Y-275220D02*
X+398600Y-275220D01*
X+398080Y-276480D02*
X+398080Y-526480D01*
X+488080Y-526480D02*
X+482299Y-512261D01*
X+468080Y-506480D01*
X+438080Y-526480D02*
X+443861Y-512261D01*
X+458080Y-506480D01*
X+438080Y-526480D02*
X+398080Y-526480D01*
X+488080Y-526480D02*
X+528080Y-526480D01*
X+468080Y-506480D02*
X+458080Y-506480D01*
D23*
X+508080Y-486480D02*
X+508045Y-485649D01*
X+507764Y-483985D01*
X+507174Y-482321D01*
X+506210Y-480657D01*
X+504735Y-479016D01*
X+503071Y-477815D01*
X+501407Y-477050D01*
X+499743Y-476619D01*
X+498080Y-476480D01*
X+488080Y-486480D02*
X+488115Y-485649D01*
X+488396Y-483985D01*
X+488986Y-482321D01*
X+489950Y-480657D01*
X+491425Y-479016D01*
X+493089Y-477815D01*
X+494753Y-477050D01*
X+496417Y-476619D01*
X+498080Y-476480D01*
X+488080Y-486480D02*
X+488115Y-487311D01*
X+488396Y-488975D01*
X+488986Y-490639D01*
X+489950Y-492303D01*
X+491425Y-493944D01*
X+493089Y-495145D01*
X+494753Y-495910D01*
X+496417Y-496341D01*
X+498080Y-496480D01*
X+508080Y-486480D02*
X+508045Y-487311D01*
X+507764Y-488975D01*
X+507174Y-490639D01*
X+506210Y-492303D01*
X+504735Y-493944D01*
X+503071Y-495145D01*
X+501407Y-495910D01*
X+499743Y-496341D01*
X+498080Y-496480D01*
X+414820Y-167280D02*
X+414820Y-218080D01*
X+421170Y-228240D01*
X+446570Y-228240D01*
X+452920Y-218080D01*
X+452920Y-167280D01*
X+471970Y-177440D02*
X+478320Y-167280D01*
X+497370Y-167280D01*
X+503720Y-177440D01*
X+503720Y-187600D01*
X+497370Y-197760D01*
X+503720Y-207920D01*
X+503720Y-218080D01*
X+497370Y-228240D01*
X+478320Y-228240D01*
X+471970Y-218080D01*
X+484670Y-197760D02*
X+497370Y-197760D01*
X+491340Y-893420D02*
X+422760Y-893420D01*
X+491340Y-771500D02*
X+420220Y-771500D01*
X+291570Y-705260D02*
X+275695Y-720500D01*
X+228070Y-720500D01*
X+196320Y-690020D01*
X+196320Y-659540D01*
X+228070Y-629060D01*
X+275695Y-629060D01*
X+291570Y-644300D01*
X+339195Y-644300D02*
X+355070Y-629060D01*
X+402695Y-629060D01*
X+418570Y-644300D01*
X+418570Y-659540D01*
X+402695Y-674780D01*
X+355070Y-674780D01*
X+339195Y-690020D01*
X+339195Y-720500D01*
X+418570Y-720500D01*
X-955000Y-10000D02*
X+645000Y-10000D01*
X+645000Y+1590000D01*
X-955000Y+1590000D01*
X-955000Y-10000D01*
X-726922Y+1525000D02*
X-727053Y+1528156D01*
X-728118Y+1534470D01*
X-730347Y+1540784D01*
X-733990Y+1547098D01*
X-739562Y+1553334D01*
X-745876Y+1557927D01*
X-752190Y+1560859D01*
X-758504Y+1562520D01*
X-764818Y+1563078D01*
X-765000Y+1563078D01*
X-803078Y+1525000D02*
X-802947Y+1528156D01*
X-801882Y+1534470D01*
X-799653Y+1540784D01*
X-796010Y+1547098D01*
X-790438Y+1553334D01*
X-784124Y+1557927D01*
X-777810Y+1560859D01*
X-771496Y+1562520D01*
X-765182Y+1563078D01*
X-765000Y+1563078D01*
X-803078Y+1525000D02*
X-802947Y+1521844D01*
X-801882Y+1515530D01*
X-799653Y+1509216D01*
X-796010Y+1502902D01*
X-790438Y+1496666D01*
X-784124Y+1492073D01*
X-777810Y+1489141D01*
X-771496Y+1487480D01*
X-765182Y+1486922D01*
X-765000Y+1486922D01*
X-726922Y+1525000D02*
X-727053Y+1521844D01*
X-728118Y+1515530D01*
X-730347Y+1509216D01*
X-733990Y+1502902D01*
X-739562Y+1496666D01*
X-745876Y+1492073D01*
X-752190Y+1489141D01*
X-758504Y+1487480D01*
X-764818Y+1486922D01*
X-765000Y+1486922D01*
X-755000Y+1525000D02*
X-755035Y+1525831D01*
X-755316Y+1527495D01*
X-755906Y+1529159D01*
X-756870Y+1530823D01*
X-758345Y+1532464D01*
X-760009Y+1533665D01*
X-761673Y+1534430D01*
X-763337Y+1534861D01*
X-765000Y+1535000D01*
X-775000Y+1525000D02*
X-774965Y+1525831D01*
X-774684Y+1527495D01*
X-774094Y+1529159D01*
X-773130Y+1530823D01*
X-771655Y+1532464D01*
X-769991Y+1533665D01*
X-768327Y+1534430D01*
X-766663Y+1534861D01*
X-765000Y+1535000D01*
X-775000Y+1525000D02*
X-774965Y+1524169D01*
X-774684Y+1522505D01*
X-774094Y+1520841D01*
X-773130Y+1519177D01*
X-771655Y+1517536D01*
X-769991Y+1516335D01*
X-768327Y+1515570D01*
X-766663Y+1515139D01*
X-765000Y+1515000D01*
X-755000Y+1525000D02*
X-755035Y+1524169D01*
X-755316Y+1522505D01*
X-755906Y+1520841D01*
X-756870Y+1519177D01*
X-758345Y+1517536D01*
X-760009Y+1516335D01*
X-761673Y+1515570D01*
X-763337Y+1515139D01*
X-765000Y+1515000D01*
X-98679Y+830000D02*
X-98939Y+836296D01*
X-101054Y+848890D01*
X-105476Y+861484D01*
X-112694Y+874078D01*
X-123738Y+886543D01*
X-136332Y+895800D01*
X-148926Y+901729D01*
X-161520Y+905121D01*
X-174114Y+906316D01*
X-175000Y+906321D01*
X-251321Y+830000D02*
X-251061Y+836296D01*
X-248946Y+848890D01*
X-244524Y+861484D01*
X-237306Y+874078D01*
X-226262Y+886543D01*
X-213668Y+895800D01*
X-201074Y+901729D01*
X-188480Y+905121D01*
X-175886Y+906316D01*
X-175000Y+906321D01*
X-251321Y+830000D02*
X-251061Y+823704D01*
X-248946Y+811110D01*
X-244524Y+798516D01*
X-237306Y+785922D01*
X-226262Y+773457D01*
X-213668Y+764200D01*
X-201074Y+758271D01*
X-188480Y+754879D01*
X-175886Y+753684D01*
X-175000Y+753679D01*
X-98679Y+830000D02*
X-98939Y+823704D01*
X-101054Y+811110D01*
X-105476Y+798516D01*
X-112694Y+785922D01*
X-123738Y+773457D01*
X-136332Y+764200D01*
X-148926Y+758271D01*
X-161520Y+754879D01*
X-174114Y+753684D01*
X-175000Y+753679D01*
X-233700Y+1706840D02*
X-233700Y+1656040D01*
X-224175Y+1645880D01*
X-186075Y+1645880D01*
X-176550Y+1656040D01*
X-176550Y+1706840D01*
X-138450Y+1686520D02*
X-119400Y+1706840D01*
X-119400Y+1645880D01*
X-220000Y+2695000D02*
X+280000Y+2695000D01*
X+280000Y+2995000D01*
X-220000Y+2995000D01*
X-220000Y+2695000D01*
X+352300Y+2861800D02*
X+352300Y+2772900D01*
X+352300Y+2861800D02*
X+415800Y+2912600D01*
X+428500Y+2925300D02*
X+377700Y+2912600D01*
X+428500Y+2925300D02*
X+415800Y+2874500D01*
X+377700Y+2811000D02*
X+352300Y+2772900D01*
X+326900Y+2811000D02*
X+352300Y+2772900D01*
X+329511Y+3040500D02*
X+329456Y+3041814D01*
X+329011Y+3044443D01*
X+328080Y+3047072D01*
X+326558Y+3049701D01*
X+324230Y+3052294D01*
X+321601Y+3054195D01*
X+318972Y+3055406D01*
X+316343Y+3056089D01*
X+313714Y+3056311D01*
X+313700Y+3056311D01*
X+297889Y+3040500D02*
X+297944Y+3041814D01*
X+298389Y+3044443D01*
X+299320Y+3047072D01*
X+300842Y+3049701D01*
X+303170Y+3052294D01*
X+305799Y+3054195D01*
X+308428Y+3055406D01*
X+311057Y+3056089D01*
X+313686Y+3056311D01*
X+313700Y+3056311D01*
X+297889Y+3040500D02*
X+297944Y+3039186D01*
X+298389Y+3036557D01*
X+299320Y+3033928D01*
X+300842Y+3031299D01*
X+303170Y+3028706D01*
X+305799Y+3026805D01*
X+308428Y+3025594D01*
X+311057Y+3024911D01*
X+313686Y+3024689D01*
X+313700Y+3024689D01*
X+329511Y+3040500D02*
X+329456Y+3039186D01*
X+329011Y+3036557D01*
X+328080Y+3033928D01*
X+326558Y+3031299D01*
X+324230Y+3028706D01*
X+321601Y+3026805D01*
X+318972Y+3025594D01*
X+316343Y+3024911D01*
X+313714Y+3024689D01*
X+313700Y+3024689D01*
X+329380Y+2559535D02*
X+380180Y+2559535D01*
X+390340Y+2569060D01*
X+390340Y+2607160D01*
X+380180Y+2616685D01*
X+329380Y+2616685D01*
X+339540Y+2645260D02*
X+329380Y+2654785D01*
X+329380Y+2683360D01*
X+339540Y+2692885D01*
X+349700Y+2692885D01*
X+359860Y+2683360D01*
X+359860Y+2654785D01*
X+370020Y+2645260D01*
X+390340Y+2645260D01*
X+390340Y+2692885D01*
X-727968Y+2270000D02*
X-728774Y+2289939D01*
X-735320Y+2329818D01*
X-748979Y+2369697D01*
X-771178Y+2409576D01*
X-805099Y+2449328D01*
X-844978Y+2480045D01*
X-884857Y+2499998D01*
X-924736Y+2511864D01*
X-964615Y+2516814D01*
X-975000Y+2517032D01*
X-1222032Y+2270000D02*
X-1221226Y+2289939D01*
X-1214680Y+2329818D01*
X-1201021Y+2369697D01*
X-1178822Y+2409576D01*
X-1144901Y+2449328D01*
X-1105022Y+2480045D01*
X-1065143Y+2499998D01*
X-1025264Y+2511864D01*
X-985385Y+2516814D01*
X-975000Y+2517032D01*
X-1222032Y+2270000D02*
X-1221226Y+2250061D01*
X-1214680Y+2210182D01*
X-1201021Y+2170303D01*
X-1178822Y+2130424D01*
X-1144901Y+2090672D01*
X-1105022Y+2059955D01*
X-1065143Y+2040002D01*
X-1025264Y+2028136D01*
X-985385Y+2023186D01*
X-975000Y+2022968D01*
X-727968Y+2270000D02*
X-728774Y+2250061D01*
X-735320Y+2210182D01*
X-748979Y+2170303D01*
X-771178Y+2130424D01*
X-805099Y+2090672D01*
X-844978Y+2059955D01*
X-884857Y+2040002D01*
X-924736Y+2028136D01*
X-964615Y+2023186D01*
X-975000Y+2022968D01*
X-1089008Y+1767464D02*
X-1089008Y+1828424D01*
X-1041383Y+1828424D01*
X-1031858Y+1818264D01*
X-1031858Y+1808104D01*
X-1041383Y+1797944D01*
X-1031858Y+1787784D01*
X-1031858Y+1777624D01*
X-1041383Y+1767464D01*
X-1089008Y+1767464D01*
X-1089008Y+1797944D02*
X-1041383Y+1797944D01*
X-1012808Y+1767464D02*
X-1012808Y+1808104D01*
X-993758Y+1828424D01*
X-974708Y+1828424D01*
X-955658Y+1808104D01*
X-955658Y+1767464D01*
X-1012808Y+1787784D02*
X-955658Y+1787784D01*
X-936608Y+1828424D02*
X-879458Y+1828424D01*
X-908033Y+1828424D02*
X-908033Y+1767464D01*
X-841358Y+1808104D02*
X-822308Y+1828424D01*
X-822308Y+1767464D01*
X-391580Y+2866340D02*
X-391580Y+2797760D01*
X-513500Y+2866340D02*
X-513500Y+2795220D01*
X-424820Y+3102920D02*
X-412120Y+3090220D01*
X-412120Y+3052120D01*
X-437520Y+3026720D01*
X-462920Y+3026720D01*
X-488320Y+3052120D01*
X-488320Y+3090220D01*
X-475620Y+3102920D01*
X-462920Y+3153720D02*
X-488320Y+3179120D01*
X-412120Y+3179120D01*
D26*
X+27500Y+2305000D02*
X+27457Y+2306039D01*
X+27105Y+2308118D01*
X+26368Y+2310197D01*
X+25164Y+2312276D01*
X+23323Y+2314326D01*
X+21244Y+2315829D01*
X+19165Y+2316786D01*
X+17086Y+2317325D01*
X+15007Y+2317500D01*
X+15000Y+2317500D01*
X+2500Y+2305000D02*
X+2543Y+2306039D01*
X+2895Y+2308118D01*
X+3632Y+2310197D01*
X+4836Y+2312276D01*
X+6677Y+2314326D01*
X+8756Y+2315829D01*
X+10835Y+2316786D01*
X+12914Y+2317325D01*
X+14993Y+2317500D01*
X+15000Y+2317500D01*
X+2500Y+2305000D02*
X+2543Y+2303961D01*
X+2895Y+2301882D01*
X+3632Y+2299803D01*
X+4836Y+2297724D01*
X+6677Y+2295674D01*
X+8756Y+2294171D01*
X+10835Y+2293214D01*
X+12914Y+2292675D01*
X+14993Y+2292500D01*
X+15000Y+2292500D01*
X+27500Y+2305000D02*
X+27457Y+2303961D01*
X+27105Y+2301882D01*
X+26368Y+2299803D01*
X+25164Y+2297724D01*
X+23323Y+2295674D01*
X+21244Y+2294171D01*
X+19165Y+2293214D01*
X+17086Y+2292675D01*
X+15007Y+2292500D01*
X+15000Y+2292500D01*
D27*
X-135000Y+2245000D02*
X-135000Y+2065000D01*
X+5000Y+2245000D02*
X+5000Y+2065000D01*
D23*
X+196920Y+2034250D02*
X+105480Y+2034250D01*
X+105480Y+2097750D01*
X+135960Y+2129500D01*
X+166440Y+2129500D01*
X+196920Y+2097750D01*
X+196920Y+2034250D01*
X+135960Y+2193000D02*
X+105480Y+2224750D01*
X+196920Y+2224750D01*
X-513420Y+2128660D02*
X-513420Y+2197240D01*
X-391500Y+2128660D02*
X-391500Y+2199780D01*
X-229060Y+2034680D02*
X-320500Y+2034680D01*
X-320500Y+2114055D01*
X-305260Y+2129930D01*
X-290020Y+2129930D01*
X-274780Y+2114055D01*
X-274780Y+2034680D01*
X-274780Y+2114055D02*
X-259540Y+2129930D01*
X-229060Y+2129930D01*
X-305260Y+2177555D02*
X-320500Y+2193430D01*
X-320500Y+2241055D01*
X-305260Y+2256930D01*
X-290020Y+2256930D01*
X-274780Y+2241055D01*
X-259540Y+2256930D01*
X-244300Y+2256930D01*
X-229060Y+2241055D01*
X-229060Y+2193430D01*
X-244300Y+2177555D01*
X-274780Y+2209305D02*
X-274780Y+2241055D01*
X+618420Y+2841340D02*
X+618420Y+2772760D01*
X+496500Y+2841340D02*
X+496500Y+2770220D01*
X+602880Y+3016720D02*
X+526680Y+3016720D01*
X+526680Y+3080220D01*
X+539380Y+3092920D01*
X+552080Y+3092920D01*
X+564780Y+3080220D01*
X+564780Y+3016720D01*
X+564780Y+3080220D02*
X+577480Y+3092920D01*
X+602880Y+3092920D01*
X+552080Y+3143720D02*
X+526680Y+3169120D01*
X+602880Y+3169120D01*
X+491580Y+2375300D02*
X+491580Y+2443880D01*
X+613500Y+2375300D02*
X+613500Y+2446420D01*
X+765940Y+2271320D02*
X+674500Y+2271320D01*
X+674500Y+2350695D01*
X+689740Y+2366570D01*
X+704980Y+2366570D01*
X+720220Y+2350695D01*
X+720220Y+2271320D01*
X+720220Y+2350695D02*
X+735460Y+2366570D01*
X+765940Y+2366570D01*
X+689740Y+2414195D02*
X+674500Y+2430070D01*
X+674500Y+2477695D01*
X+689740Y+2493570D01*
X+704980Y+2493570D01*
X+720220Y+2477695D01*
X+720220Y+2430070D01*
X+735460Y+2414195D01*
X+765940Y+2414195D01*
X+765940Y+2493570D01*
X+1188000Y-1712000D02*
X+1442000Y-1712000D01*
X+1442000Y-1458000D01*
X+1188000Y-1458000D01*
X+1188000Y-1712000D01*
X+1188000Y-1457000D02*
X+1442000Y-1457000D01*
X+1442000Y-1203000D01*
X+1188000Y-1203000D01*
X+1188000Y-1457000D01*
X+1188000Y-1967000D02*
X+1442000Y-1967000D01*
X+1442000Y-1713000D01*
X+1188000Y-1713000D01*
X+1188000Y-1967000D01*
X-27299Y-1926661D02*
X-26464Y-1926113D01*
X-25605Y-1925651D01*
X-24723Y-1925272D01*
X-15556Y-1925525D02*
X-13843Y-1926338D01*
X-12241Y-1927361D01*
X-10780Y-1928577D01*
X-10112Y-1929251D01*
X-9491Y-1929967D01*
X-8920Y-1930721D01*
X-8403Y-1931512D01*
X-7945Y-1932336D01*
X-7548Y-1933193D01*
X-7217Y-1934079D01*
X-6955Y-1934993D01*
X-6767Y-1935931D01*
X-6656Y-1936892D01*
X-6559Y-1970383D01*
X-6596Y-1971931D01*
X-6829Y-1973448D01*
X-7244Y-1974920D01*
X-8181Y-1977014D01*
X-9453Y-1978934D01*
X-11015Y-1980634D01*
X-12820Y-1982071D01*
X-14822Y-1983200D01*
X-16245Y-1983760D01*
X-17722Y-1984151D01*
X-19239Y-1984359D01*
X-20783Y-1984371D01*
X-22248Y-1984253D01*
X-24376Y-1983752D01*
X-26387Y-1982896D01*
X-28242Y-1981727D01*
X-29904Y-1980286D01*
X-31333Y-1978613D01*
X-32492Y-1976748D01*
X-33342Y-1974732D01*
X-33845Y-1972605D01*
X-33969Y-1971146D01*
X-33963Y-1970409D01*
X-33957Y-1938394D01*
X-32729Y-1932743D01*
X-28504Y-1927469D01*
X-27299Y-1926661D01*
X-125728Y-1965961D02*
X-120991Y-1965317D01*
X-115876Y-1966544D01*
X-111513Y-1969555D01*
X-89946Y-1991075D01*
X-85232Y-1999086D01*
X-85054Y-2003504D01*
X-85148Y-2004005D01*
X-85970Y-2006946D01*
X-87824Y-2010104D01*
X-90439Y-2012682D01*
X-93623Y-2014493D01*
X-96572Y-2015283D01*
X-97184Y-2015351D01*
X-99504Y-2015454D01*
X-102773Y-2014736D01*
X-110990Y-2008774D01*
X-111374Y-2008372D01*
X-132132Y-1987161D01*
X-132707Y-1986430D01*
X-133215Y-1985669D01*
X-133657Y-1984879D01*
X-134034Y-1984066D01*
X-134348Y-1983232D01*
X-134599Y-1982380D01*
X-134918Y-1980639D01*
X-135000Y-1978871D01*
X-134856Y-1977102D01*
X-134493Y-1975361D01*
X-133920Y-1973675D01*
X-133148Y-1972072D01*
X-132184Y-1970579D01*
X-131039Y-1969223D01*
X-129721Y-1968033D01*
X-129000Y-1967508D01*
X-128239Y-1967035D01*
X-127439Y-1966617D01*
X-126602Y-1966258D01*
X-125728Y-1965961D01*
X+80796Y-1951013D02*
X+83288Y-1950422D01*
X+86465Y-1950366D01*
X+89566Y-1951027D01*
X+92435Y-1952362D01*
X+94914Y-1954324D01*
X+96512Y-1956316D01*
X+96848Y-1956869D01*
X+97829Y-1958609D01*
X+98481Y-1960446D01*
X+98867Y-1962989D01*
X+98630Y-1966203D01*
X+97664Y-1969308D01*
X+96045Y-1972147D01*
X+94332Y-1974120D01*
X+72138Y-1996270D01*
X+69648Y-1998238D01*
X+66186Y-1999812D01*
X+57538Y-1999579D02*
X+55822Y-1998723D01*
X+55275Y-1998368D01*
X+53945Y-1997492D01*
X+52759Y-1996460D01*
X+51722Y-1995292D01*
X+50837Y-1994007D01*
X+50730Y-1979848D02*
X+51667Y-1978555D01*
X+67433Y-1962363D01*
X+80796Y-1951013D01*
X-39090Y-2100302D02*
X-38273Y-2099687D01*
X-36557Y-2098600D01*
X-34743Y-2097706D01*
X-32851Y-2097004D01*
X-30899Y-2096493D01*
X-28905Y-2096171D01*
X-26888Y-2096038D01*
X-24866Y-2096092D01*
X-22858Y-2096332D01*
X-20882Y-2096757D01*
X-18956Y-2097367D01*
X-17099Y-2098160D01*
X-15330Y-2099134D01*
X-13666Y-2100290D01*
X-12126Y-2101626D01*
X-7469Y-2108196D01*
X-5659Y-2116627D01*
X-5667Y-2186067D01*
X-5042Y-2184707D01*
X-4323Y-2183419D01*
X-3517Y-2182204D01*
X-2628Y-2181063D01*
X-1662Y-2179998D01*
X-626Y-2179008D01*
X+476Y-2178095D01*
X+1637Y-2177260D01*
X+2852Y-2176504D01*
X+4115Y-2175828D01*
X+5420Y-2175232D01*
X+6761Y-2174717D01*
X+8133Y-2174285D01*
X+9530Y-2173936D01*
X+10947Y-2173671D01*
X+12377Y-2173492D01*
X+13815Y-2173398D01*
X+15255Y-2173391D01*
X+16692Y-2173472D01*
X+18119Y-2173642D01*
X+19531Y-2173901D01*
X+20922Y-2174251D01*
X+22287Y-2174692D01*
X+23619Y-2175226D01*
X+24913Y-2175852D01*
X+26164Y-2176573D01*
X+27365Y-2177389D01*
X+28511Y-2178301D01*
X+29596Y-2179310D01*
X+30148Y-2179825D01*
X+31592Y-2181483D01*
X+33066Y-2183926D01*
X+34276Y-2187266D01*
X+34951Y-2198770D01*
X+35574Y-2197625D01*
X+36265Y-2196538D01*
X+37019Y-2195508D01*
X+37834Y-2194537D01*
X+38705Y-2193625D01*
X+39629Y-2192772D01*
X+40602Y-2191978D01*
X+41621Y-2191244D01*
X+42681Y-2190570D01*
X+43780Y-2189957D01*
X+44912Y-2189405D01*
X+46075Y-2188913D01*
X+47265Y-2188484D01*
X+48479Y-2188117D01*
X+49711Y-2187811D01*
X+50959Y-2187569D01*
X+52220Y-2187390D01*
X+53488Y-2187274D01*
X+54761Y-2187221D01*
X+56035Y-2187233D01*
X+57306Y-2187310D01*
X+58570Y-2187451D01*
X+59824Y-2187658D01*
X+61064Y-2187930D01*
X+62286Y-2188268D01*
X+63487Y-2188672D01*
X+64663Y-2189143D01*
X+65809Y-2189681D01*
X+66923Y-2190287D01*
X+69390Y-2191930D01*
X+73370Y-2196328D01*
X+75269Y-2200647D01*
X+75721Y-2204190D01*
X+76302Y-2252345D01*
X+78591Y-2226318D01*
X+78774Y-2225374D01*
X+79311Y-2223549D01*
X+80063Y-2221817D01*
X+81010Y-2220190D01*
X+82135Y-2218679D01*
X+83418Y-2217295D01*
X+84842Y-2216051D01*
X+86388Y-2214958D01*
X+88037Y-2214026D01*
X+89771Y-2213268D01*
X+91572Y-2212695D01*
X+93422Y-2212318D01*
X+95301Y-2212149D01*
X+97192Y-2212199D01*
X+99076Y-2212480D01*
X+99988Y-2212659D01*
X+101761Y-2213170D01*
X+103460Y-2213872D01*
X+105071Y-2214750D01*
X+106582Y-2215791D01*
X+107983Y-2216979D01*
X+109260Y-2218300D01*
X+110403Y-2219739D01*
X+111399Y-2221282D01*
X+112236Y-2222914D01*
X+112902Y-2224621D01*
X+113386Y-2226388D01*
X+113675Y-2228200D01*
X+113758Y-2230044D01*
X+113623Y-2231904D01*
X+104648Y-2325040D01*
X+104118Y-2338466D01*
X+102215Y-2347719D01*
X+101662Y-2349324D01*
X+101036Y-2350896D01*
X+100340Y-2352434D01*
X+99576Y-2353935D01*
X+98747Y-2355399D01*
X+97855Y-2356824D01*
X+96902Y-2358208D01*
X+95890Y-2359549D01*
X+94823Y-2360846D01*
X+93702Y-2362097D01*
X+92530Y-2363301D01*
X+91308Y-2364456D01*
X+90041Y-2365560D01*
X+88728Y-2366612D01*
X+87375Y-2367609D01*
X+85981Y-2368551D01*
X+84551Y-2369436D01*
X+83085Y-2370263D01*
X+81587Y-2371028D01*
X+80059Y-2371732D01*
X+78504Y-2372372D01*
X+76923Y-2372946D01*
X+75319Y-2373453D01*
X+73694Y-2373892D01*
X+72051Y-2374261D01*
X+70392Y-2374558D01*
X+68719Y-2374781D01*
X+67035Y-2374929D01*
X+65343Y-2375000D01*
X-8466Y-2375000D01*
X-9904Y-2374932D01*
X-12764Y-2374633D01*
X-15590Y-2374125D01*
X-18370Y-2373413D01*
X-21092Y-2372506D01*
X-23743Y-2371409D01*
X-26310Y-2370129D01*
X-28781Y-2368674D01*
X-31143Y-2367049D01*
X-33383Y-2365263D01*
X-35490Y-2363321D01*
X-37449Y-2361231D01*
X-39249Y-2358999D01*
X-40878Y-2356633D01*
X-42321Y-2354138D01*
X-47641Y-2341291D01*
X-101324Y-2251574D01*
X-101757Y-2250784D01*
X-102126Y-2249981D01*
X-102680Y-2248346D01*
X-103000Y-2246682D01*
X-103099Y-2245005D01*
X-102991Y-2243328D01*
X-102690Y-2241665D01*
X-102211Y-2240030D01*
X-101187Y-2237660D01*
X-99840Y-2235432D01*
X-98217Y-2233393D01*
X-96364Y-2231589D01*
X-94328Y-2230067D01*
X-92762Y-2229045D01*
X-91072Y-2228163D01*
X-89283Y-2227431D01*
X-86467Y-2226634D01*
X-84538Y-2226315D01*
X-82596Y-2226178D01*
X-80667Y-2226230D01*
X-78774Y-2226481D01*
X-76943Y-2226940D01*
X-75199Y-2227615D01*
X-74367Y-2228036D01*
X-73565Y-2228515D01*
X-72798Y-2229053D01*
X-72068Y-2229651D01*
X-71378Y-2230309D01*
X-70731Y-2231029D01*
X-70130Y-2231812D01*
X-69579Y-2232660D01*
X-47317Y-2269804D01*
X-47286Y-2118118D01*
X-46852Y-2113229D01*
X-44850Y-2107257D01*
X-42170Y-2103182D01*
X-39090Y-2100302D01*
X-665000Y-2510000D02*
X+710000Y-2510000D01*
X+710000Y-1365000D01*
X-665000Y-1365000D01*
X-665000Y-2510000D01*
M02*
