G04 PROTEUS RS274X GERBER FILE*
%FSLAX45Y45*%
%MOMM*%
G01*
%ADD21C,1.270000*%
%AMPPAD014*
4,1,48,
0.508000,-1.524000,
-0.508000,-1.524000,
-0.534400,-1.522720,
-0.559930,-1.518950,
-0.584490,-1.512800,
-0.630220,-1.493870,
-0.670650,-1.466840,
-0.704840,-1.432640,
-0.731860,-1.392220,
-0.750800,-1.346490,
-0.756950,-1.321930,
-0.760720,-1.296400,
-0.762000,-1.270000,
-0.762000,1.270000,
-0.760720,1.296400,
-0.756950,1.321930,
-0.750800,1.346490,
-0.731860,1.392220,
-0.704840,1.432640,
-0.670650,1.466840,
-0.630220,1.493870,
-0.584490,1.512800,
-0.559930,1.518950,
-0.534400,1.522720,
-0.508000,1.524000,
0.508000,1.524000,
0.534400,1.522720,
0.559930,1.518950,
0.584490,1.512800,
0.630220,1.493870,
0.670650,1.466840,
0.704840,1.432640,
0.731860,1.392220,
0.750800,1.346490,
0.756950,1.321930,
0.760720,1.296400,
0.762000,1.270000,
0.762000,-1.270000,
0.760720,-1.296400,
0.756950,-1.321930,
0.750800,-1.346490,
0.731860,-1.392220,
0.704840,-1.432640,
0.670650,-1.466840,
0.630220,-1.493870,
0.584490,-1.512800,
0.559930,-1.518950,
0.534400,-1.522720,
0.508000,-1.524000,
0*%
%ADD22PPAD014*%
%AMPPAD015*
4,1,48,
0.508000,-0.889000,
-0.508000,-0.889000,
-0.534400,-0.887720,
-0.559930,-0.883950,
-0.584490,-0.877800,
-0.630220,-0.858870,
-0.670650,-0.831840,
-0.704840,-0.797640,
-0.731860,-0.757220,
-0.750800,-0.711490,
-0.756950,-0.686930,
-0.760720,-0.661400,
-0.762000,-0.635000,
-0.762000,0.635000,
-0.760720,0.661400,
-0.756950,0.686930,
-0.750800,0.711490,
-0.731860,0.757220,
-0.704840,0.797640,
-0.670650,0.831840,
-0.630220,0.858870,
-0.584490,0.877800,
-0.559930,0.883950,
-0.534400,0.887720,
-0.508000,0.889000,
0.508000,0.889000,
0.534400,0.887720,
0.559930,0.883950,
0.584490,0.877800,
0.630220,0.858870,
0.670650,0.831840,
0.704840,0.797640,
0.731860,0.757220,
0.750800,0.711490,
0.756950,0.686930,
0.760720,0.661400,
0.762000,0.635000,
0.762000,-0.635000,
0.760720,-0.661400,
0.756950,-0.686930,
0.750800,-0.711490,
0.731860,-0.757220,
0.704840,-0.797640,
0.670650,-0.831840,
0.630220,-0.858870,
0.584490,-0.877800,
0.559930,-0.883950,
0.534400,-0.887720,
0.508000,-0.889000,
0*%
%ADD23PPAD015*%
%AMPPAD016*
4,1,48,
-1.270000,2.032000,
1.270000,2.032000,
1.296400,2.030720,
1.321930,2.026950,
1.346490,2.020800,
1.392220,2.001870,
1.432650,1.974840,
1.466840,1.940640,
1.493860,1.900220,
1.512800,1.854490,
1.518950,1.829930,
1.522720,1.804400,
1.524000,1.778000,
1.524000,-1.778000,
1.522720,-1.804400,
1.518950,-1.829930,
1.512800,-1.854490,
1.493860,-1.900220,
1.466840,-1.940640,
1.432650,-1.974840,
1.392220,-2.001870,
1.346490,-2.020800,
1.321930,-2.026950,
1.296400,-2.030720,
1.270000,-2.032000,
-1.270000,-2.032000,
-1.296400,-2.030720,
-1.321930,-2.026950,
-1.346490,-2.020800,
-1.392220,-2.001870,
-1.432650,-1.974840,
-1.466840,-1.940640,
-1.493860,-1.900220,
-1.512800,-1.854490,
-1.518950,-1.829930,
-1.522720,-1.804400,
-1.524000,-1.778000,
-1.524000,1.778000,
-1.522720,1.804400,
-1.518950,1.829930,
-1.512800,1.854490,
-1.493860,1.900220,
-1.466840,1.940640,
-1.432650,1.974840,
-1.392220,2.001870,
-1.346490,2.020800,
-1.321930,2.026950,
-1.296400,2.030720,
-1.270000,2.032000,
0*%
%ADD24PPAD016*%
%AMPPAD017*
4,1,48,
-1.016000,1.270000,
1.016000,1.270000,
1.042400,1.268720,
1.067930,1.264950,
1.092490,1.258800,
1.138220,1.239870,
1.178650,1.212840,
1.212840,1.178640,
1.239860,1.138220,
1.258800,1.092490,
1.264950,1.067930,
1.268720,1.042400,
1.270000,1.016000,
1.270000,-1.016000,
1.268720,-1.042400,
1.264950,-1.067930,
1.258800,-1.092490,
1.239860,-1.138220,
1.212840,-1.178640,
1.178650,-1.212840,
1.138220,-1.239870,
1.092490,-1.258800,
1.067930,-1.264950,
1.042400,-1.268720,
1.016000,-1.270000,
-1.016000,-1.270000,
-1.042400,-1.268720,
-1.067930,-1.264950,
-1.092490,-1.258800,
-1.138220,-1.239870,
-1.178650,-1.212840,
-1.212840,-1.178640,
-1.239860,-1.138220,
-1.258800,-1.092490,
-1.264950,-1.067930,
-1.268720,-1.042400,
-1.270000,-1.016000,
-1.270000,1.016000,
-1.268720,1.042400,
-1.264950,1.067930,
-1.258800,1.092490,
-1.239860,1.138220,
-1.212840,1.178640,
-1.178650,1.212840,
-1.138220,1.239870,
-1.092490,1.258800,
-1.067930,1.264950,
-1.042400,1.268720,
-1.016000,1.270000,
0*%
%ADD25PPAD017*%
%AMPPAD018*
4,1,36,
0.622000,0.202500,
0.622000,-0.202500,
0.619470,-0.228470,
0.612200,-0.252480,
0.600650,-0.274080,
0.585290,-0.292790,
0.566570,-0.308150,
0.544980,-0.319700,
0.520970,-0.326970,
0.495000,-0.329500,
-0.495000,-0.329500,
-0.520970,-0.326970,
-0.544980,-0.319700,
-0.566570,-0.308150,
-0.585290,-0.292790,
-0.600650,-0.274080,
-0.612200,-0.252480,
-0.619470,-0.228470,
-0.622000,-0.202500,
-0.622000,0.202500,
-0.619470,0.228470,
-0.612200,0.252480,
-0.600650,0.274080,
-0.585290,0.292790,
-0.566570,0.308150,
-0.544980,0.319700,
-0.520970,0.326970,
-0.495000,0.329500,
0.495000,0.329500,
0.520970,0.326970,
0.544980,0.319700,
0.566570,0.308150,
0.585290,0.292790,
0.600650,0.274080,
0.612200,0.252480,
0.619470,0.228470,
0.622000,0.202500,
0*%
%ADD26PPAD018*%
%AMPPAD019*
4,1,36,
0.202500,-0.622000,
-0.202500,-0.622000,
-0.228470,-0.619470,
-0.252480,-0.612200,
-0.274080,-0.600650,
-0.292790,-0.585290,
-0.308150,-0.566570,
-0.319700,-0.544980,
-0.326970,-0.520970,
-0.329500,-0.495000,
-0.329500,0.495000,
-0.326970,0.520970,
-0.319700,0.544980,
-0.308150,0.566570,
-0.292790,0.585290,
-0.274080,0.600650,
-0.252480,0.612200,
-0.228470,0.619470,
-0.202500,0.622000,
0.202500,0.622000,
0.228470,0.619470,
0.252480,0.612200,
0.274080,0.600650,
0.292790,0.585290,
0.308150,0.566570,
0.319700,0.544980,
0.326970,0.520970,
0.329500,0.495000,
0.329500,-0.495000,
0.326970,-0.520970,
0.319700,-0.544980,
0.308150,-0.566570,
0.292790,-0.585290,
0.274080,-0.600650,
0.252480,-0.612200,
0.228470,-0.619470,
0.202500,-0.622000,
0*%
%ADD27PPAD019*%
%ADD19C,8.483600*%
%AMPPAD020*
4,1,48,
-0.317500,1.270000,
0.317500,1.270000,
0.343900,1.268720,
0.369430,1.264950,
0.393990,1.258800,
0.439720,1.239870,
0.480150,1.212840,
0.514340,1.178640,
0.541360,1.138220,
0.560300,1.092490,
0.566450,1.067930,
0.570220,1.042400,
0.571500,1.016000,
0.571500,-1.016000,
0.570220,-1.042400,
0.566450,-1.067930,
0.560300,-1.092490,
0.541360,-1.138220,
0.514340,-1.178640,
0.480150,-1.212840,
0.439720,-1.239870,
0.393990,-1.258800,
0.369430,-1.264950,
0.343900,-1.268720,
0.317500,-1.270000,
-0.317500,-1.270000,
-0.343900,-1.268720,
-0.369430,-1.264950,
-0.393990,-1.258800,
-0.439720,-1.239870,
-0.480150,-1.212840,
-0.514340,-1.178640,
-0.541360,-1.138220,
-0.560300,-1.092490,
-0.566450,-1.067930,
-0.570220,-1.042400,
-0.571500,-1.016000,
-0.571500,1.016000,
-0.570220,1.042400,
-0.566450,1.067930,
-0.560300,1.092490,
-0.541360,1.138220,
-0.514340,1.178640,
-0.480150,1.212840,
-0.439720,1.239870,
-0.393990,1.258800,
-0.369430,1.264950,
-0.343900,1.268720,
-0.317500,1.270000,
0*%
%ADD28PPAD020*%
%ADD71C,0.203200*%
D21*
X-135548Y-2856243D03*
X-1203004Y+1488700D03*
X-619148Y+2303727D03*
X-386522Y+1838175D03*
X-625000Y+2151921D03*
X-625580Y+2001447D03*
X+162114Y-610000D03*
D22*
X+184000Y-3273800D03*
X-133500Y-3273800D03*
D23*
X+905000Y+1585000D03*
X+691640Y+1585000D03*
X+907900Y+1825000D03*
X+694540Y+1825000D03*
D24*
X-1035200Y+1044200D03*
X+628500Y+1044200D03*
D25*
X-679600Y-1813300D03*
X-679600Y-1406900D03*
X+742800Y-1813300D03*
X+742800Y-1406900D03*
X+1315000Y-570000D03*
X+1060000Y-60000D03*
X+1060000Y-2095000D03*
X+1060000Y-1840000D03*
X+1060000Y-2350000D03*
X+1060000Y+2480000D03*
X+1315000Y+1715000D03*
X+1314300Y-2346700D03*
D26*
X-819500Y+2071300D03*
X-819500Y+2151300D03*
X-819500Y+2231300D03*
X-819500Y+2311300D03*
X-819500Y+2391300D03*
X-819500Y+2471300D03*
X-1039500Y+2071300D03*
X-1039500Y+2151300D03*
X-1039500Y+2231300D03*
X-1039500Y+2311300D03*
X-1039500Y+2391300D03*
X-1039500Y+2471300D03*
D27*
X-929500Y+2481300D03*
D19*
X-194300Y+1061900D03*
D25*
X+1060000Y+200000D03*
X+1315000Y+200000D03*
D28*
X+503000Y+3020000D03*
X+376000Y+3020000D03*
X+249000Y+3020000D03*
X+122000Y+3020000D03*
X-5000Y+3020000D03*
X-132000Y+3020000D03*
X-259000Y+3020000D03*
X-386000Y+3020000D03*
X-386000Y+2105600D03*
X-259000Y+2105600D03*
X-132000Y+2105600D03*
X-5000Y+2105600D03*
X+122000Y+2105600D03*
X+249000Y+2105600D03*
X+376000Y+2105600D03*
X+503000Y+2105600D03*
D27*
X-930000Y+2050000D03*
D23*
X-805000Y+1860000D03*
X-1018360Y+1860000D03*
D71*
X-610000Y-3352045D02*
X-608010Y-3372492D01*
X-602285Y-3391400D01*
X-581094Y-3423139D01*
X-549356Y-3444330D01*
X-530447Y-3450055D01*
X-510000Y-3452045D01*
X-610000Y-3352045D02*
X-610000Y-2682045D01*
X-611990Y-2661598D01*
X-617715Y-2642690D01*
X-638906Y-2610951D01*
X-670644Y-2589760D01*
X-689553Y-2584035D01*
X-710000Y-2582045D01*
X-1190000Y-2582045D01*
X-1290000Y-2482045D02*
X-1288010Y-2502492D01*
X-1282285Y-2521400D01*
X-1261094Y-2553139D01*
X-1229356Y-2574330D01*
X-1210447Y-2580055D01*
X-1190000Y-2582045D01*
X-1290000Y-2482045D02*
X-1290000Y+2617964D01*
X-1288010Y+2638411D01*
X-1282285Y+2657319D01*
X-1261094Y+2689058D01*
X-1229356Y+2710249D01*
X-1210447Y+2715974D01*
X-1190000Y+2717964D01*
X-750000Y+2717964D01*
X-650000Y+2817964D02*
X-651990Y+2797517D01*
X-657715Y+2778609D01*
X-678906Y+2746870D01*
X-710644Y+2725679D01*
X-729553Y+2719954D01*
X-750000Y+2717964D01*
X-650000Y+2817964D02*
X-650000Y+3218300D01*
X-648010Y+3238747D01*
X-642285Y+3257655D01*
X-621094Y+3289394D01*
X-589356Y+3310585D01*
X-570447Y+3316310D01*
X-550000Y+3318300D01*
X+630000Y+3318300D01*
X+730000Y+3218300D02*
X+728010Y+3238747D01*
X+722285Y+3257655D01*
X+701094Y+3289394D01*
X+669356Y+3310585D01*
X+650447Y+3316310D01*
X+630000Y+3318300D01*
X+730000Y+3218300D02*
X+730000Y+2817964D01*
X+731990Y+2797517D01*
X+737715Y+2778609D01*
X+758906Y+2746870D01*
X+790644Y+2725679D01*
X+809553Y+2719954D01*
X+830000Y+2717964D01*
X+1440000Y+2717964D01*
X+1540000Y+2617964D02*
X+1538010Y+2638411D01*
X+1532285Y+2657319D01*
X+1511094Y+2689058D01*
X+1479356Y+2710249D01*
X+1460447Y+2715974D01*
X+1440000Y+2717964D01*
X+1540000Y+2617964D02*
X+1540000Y-2482045D01*
X+1538010Y-2502492D01*
X+1532285Y-2521400D01*
X+1511094Y-2553139D01*
X+1479356Y-2574330D01*
X+1460447Y-2580055D01*
X+1440000Y-2582045D01*
X+790000Y-2582045D01*
X+690000Y-2682045D02*
X+691990Y-2661598D01*
X+697715Y-2642690D01*
X+718906Y-2610951D01*
X+750644Y-2589760D01*
X+769553Y-2584035D01*
X+790000Y-2582045D01*
X+690000Y-2682045D02*
X+690000Y-3352045D01*
X+688010Y-3372492D01*
X+682285Y-3391400D01*
X+661094Y-3423139D01*
X+629356Y-3444330D01*
X+610447Y-3450055D01*
X+590000Y-3452045D01*
X+302500Y-3452045D01*
X-222500Y-3452045D02*
X-510000Y-3452045D01*
X+302500Y-3452045D02*
X-222500Y-3452045D01*
M02*
